<svg width="242" height="189" viewBox="0 0 242 189" fill="none" xmlns="http://www.w3.org/2000/svg">
<path d="M156.699 144.697H107.624C107.247 144.697 106.869 144.982 106.869 145.456V163.486C106.869 163.865 107.152 164.245 107.624 164.245H156.699C157.076 164.245 157.454 163.96 157.454 163.486V145.456C157.359 145.077 157.076 144.697 156.699 144.697Z" fill="url(#paint0_linear)"/>
<path d="M182.273 71.1571L139.334 0.0843236C139.24 -0.105457 137.163 0.0844127 136.974 0.0844127H135.181C134.803 0.0844127 134.615 0.369083 134.615 0.653754V71.8989C134.615 73.2186 133.545 74.2885 132.225 74.2885C130.892 74.2885 129.817 73.198 129.836 71.8652L130.841 0.463974C130.841 0.0844133 129.518 0.179303 129.235 0.179303H127.253C127.065 0.179303 126.876 0.274193 126.782 0.463974L81.8596 71.1571C80.1609 73.814 79.8778 77.1352 81.1047 79.9819L104.316 136.234C105.861 139.977 109.511 142.42 113.56 142.42H129.99H131.312H150.573C154.622 142.42 158.272 139.977 159.817 136.234L183.028 79.9819C184.255 77.0403 183.972 73.7191 182.273 71.1571Z" fill="url(#paint1_linear)"/>
<path d="M159.53 144.696H110.455C110.078 144.696 109.7 144.981 109.7 145.455V163.485C109.7 163.864 109.983 164.244 110.455 164.244H159.53C159.907 164.244 160.285 163.959 160.285 163.485V145.455C160.19 145.076 159.907 144.696 159.53 144.696Z" fill="#319AC1"/>
<path d="M185.104 71.1567L140.277 0.368655C140.183 0.178875 139.994 0.0839844 139.805 0.0839844H138.012C137.634 0.0839844 137.446 0.368655 137.446 0.653325V71.8815C137.446 73.2106 136.368 74.288 135.039 74.288C133.71 74.288 132.633 73.2106 132.633 71.8815V0.748216C132.633 0.368655 132.349 0.178875 132.066 0.178875H130.085C129.896 0.178875 129.707 0.273765 129.613 0.463545L84.6907 71.1567C82.992 73.8136 82.7088 77.1347 83.9357 79.9814L107.147 136.233C108.692 139.977 112.342 142.419 116.391 142.419H132.821H134.143H153.404C157.453 142.419 161.103 139.977 162.648 136.233L185.859 79.9814C187.086 77.0398 186.803 73.7187 185.104 71.1567Z" fill="url(#paint2_linear)"/>
<path d="M211.435 169.453H162.36C161.983 169.453 161.605 169.738 161.605 170.212V188.241C161.605 188.621 161.889 189 162.36 189H211.435C211.812 189 212.19 188.716 212.19 188.241V171.361C212.19 170.598 212.198 169.453 211.435 169.453Z" fill="url(#paint3_linear)"/>
<path d="M237.01 95.9129L194.542 24.8402C194.448 24.6504 191.899 24.8403 191.71 24.8403H189.917C189.54 24.8403 189.351 25.125 189.351 25.4096V96.6624C189.351 97.9779 188.285 99.0443 186.969 99.0443C185.634 99.0443 184.56 97.948 184.588 96.6137L186.049 25.1249C186.049 24.7453 184.255 24.9352 183.972 24.9352H181.99C181.801 24.9352 181.612 25.0301 181.518 25.2198L136.596 95.9129C134.897 98.5699 134.614 101.891 135.841 104.738L159.053 160.99C160.597 164.733 164.247 167.175 168.297 167.175H184.727H186.048H205.309C209.359 167.175 213.008 164.733 214.553 160.99L237.765 104.738C238.992 101.796 238.708 98.475 237.01 95.9129Z" fill="#F54E7E"/>
<path d="M237.01 95.9129L194.542 24.8402C194.448 24.6504 191.899 24.8403 191.71 24.8403H189.917C189.54 24.8403 189.351 25.125 189.351 25.4096V96.6624C189.351 97.9779 188.285 99.0443 186.969 99.0443C185.634 99.0443 184.56 97.948 184.588 96.6137L186.049 25.1249C186.049 24.7453 184.255 24.9352 183.972 24.9352H181.99C181.801 24.9352 181.612 25.0301 181.518 25.2198L136.596 95.9129C134.897 98.5699 134.614 101.891 135.841 104.738L159.053 160.99C160.597 164.733 164.247 167.175 168.297 167.175H184.727H186.048H205.309C209.359 167.175 213.008 164.733 214.553 160.99L237.765 104.738C238.992 101.796 238.708 98.475 237.01 95.9129Z" fill="url(#paint4_linear)"/>
<path d="M214.266 169.452H165.192C164.814 169.452 164.437 169.737 164.437 170.211V188.24C164.437 188.62 164.72 188.999 165.192 188.999H214.266C214.643 188.999 215.021 188.715 215.021 188.24V171.36C215.021 170.597 215.029 169.452 214.266 169.452Z" fill="url(#paint5_linear)"/>
<path d="M239.841 95.9125L195.013 25.1245C194.919 24.9347 194.73 24.8398 194.541 24.8398H192.748C192.371 24.8398 192.182 25.1245 192.182 25.4092V96.6374C192.182 97.9664 191.105 99.0439 189.775 99.0439C188.446 99.0439 187.369 97.9664 187.369 96.6373V25.5041C187.369 25.1245 187.086 24.9347 186.803 24.9347H184.821C184.632 24.9347 184.443 25.0296 184.349 25.2194L139.427 95.9125C137.728 98.5694 137.445 101.891 138.672 104.737L161.884 160.989C163.428 164.733 167.078 167.175 171.128 167.175H187.558H188.879H208.14C212.19 167.175 215.839 164.733 217.384 160.989L240.596 104.737C241.823 101.796 241.54 98.4745 239.841 95.9125Z" fill="url(#paint6_linear)"/>
<g clip-path="url(#clip0)">
<path d="M52.1069 141.412C52.1069 141.412 1.3665 97.0371 56.2461 45.6182" stroke="url(#paint7_linear)" stroke-width="4" stroke-miterlimit="10"/>
<path d="M58.144 143.574L53.6484 147.697L49.5253 143.202L54.0208 139.079L58.144 143.574Z" stroke="url(#paint8_linear)" stroke-width="2" stroke-miterlimit="10"/>
<path d="M62.5473 43.9443L58.0518 48.0674L53.9286 43.5719L58.4242 39.4487L62.5473 43.9443Z" stroke="url(#paint9_linear)" stroke-width="2" stroke-miterlimit="10"/>
</g>
<defs>
<linearGradient id="paint0_linear" x1="132.161" y1="144.697" x2="132.161" y2="164.245" gradientUnits="userSpaceOnUse">
<stop stop-color="#2289AF"/>
<stop offset="0.473958" stop-color="#479AB9"/>
<stop offset="1" stop-color="#237492"/>
</linearGradient>
<linearGradient id="paint1_linear" x1="90.9998" y1="58" x2="132.067" y2="142.42" gradientUnits="userSpaceOnUse">
<stop stop-color="#73D9FF"/>
<stop offset="0.158219" stop-color="#4DC5F2"/>
<stop offset="0.233411" stop-color="#2E90B4"/>
<stop offset="1" stop-color="#2783A6"/>
</linearGradient>
<linearGradient id="paint2_linear" x1="108.764" y1="29.8981" x2="183.5" y2="158.5" gradientUnits="userSpaceOnUse">
<stop offset="0.252788" stop-color="#43C0EE"/>
<stop offset="0.406615" stop-color="#58D2FF"/>
<stop offset="1" stop-color="#2686AA"/>
</linearGradient>
<linearGradient id="paint3_linear" x1="186.898" y1="169.453" x2="186.898" y2="189" gradientUnits="userSpaceOnUse">
<stop stop-color="#862843"/>
<stop offset="0.494792" stop-color="#B4385B"/>
<stop offset="1" stop-color="#652235"/>
</linearGradient>
<linearGradient id="paint4_linear" x1="145.736" y1="82.7559" x2="186.803" y2="167.175" gradientUnits="userSpaceOnUse">
<stop stop-color="#FF7AA0"/>
<stop offset="0.158219" stop-color="#D76687"/>
<stop offset="0.233411" stop-color="#AB3356"/>
<stop offset="1" stop-color="#912E4A"/>
</linearGradient>
<linearGradient id="paint5_linear" x1="189.729" y1="169.452" x2="194.968" y2="190.062" gradientUnits="userSpaceOnUse">
<stop stop-color="#A72A4E"/>
<stop offset="0.494792" stop-color="#B4385B"/>
<stop offset="1" stop-color="#8E1A3B"/>
</linearGradient>
<linearGradient id="paint6_linear" x1="177.262" y1="26.6917" x2="216.92" y2="164.709" gradientUnits="userSpaceOnUse">
<stop stop-color="#CF446C"/>
<stop offset="0.61828" stop-color="#CD426A"/>
<stop offset="1" stop-color="#8B1839"/>
</linearGradient>
<linearGradient id="paint7_linear" x1="27.6263" y1="91.261" x2="37.5316" y2="94.448" gradientUnits="userSpaceOnUse">
<stop stop-color="#9DE4FF"/>
<stop offset="0.226812" stop-color="#3FA6CC"/>
<stop offset="0.984375" stop-color="#2A7C9A"/>
</linearGradient>
<linearGradient id="paint8_linear" x1="55.8962" y1="145.636" x2="51.7731" y2="141.14" gradientUnits="userSpaceOnUse">
<stop stop-color="#FF346D"/>
<stop offset="1" stop-color="#FF85A7"/>
</linearGradient>
<linearGradient id="paint9_linear" x1="60.2995" y1="46.0058" x2="56.1764" y2="41.5103" gradientUnits="userSpaceOnUse">
<stop stop-color="#FF346D"/>
<stop offset="1" stop-color="#FF85A7"/>
</linearGradient>
<clipPath id="clip0">
<rect width="78.7" height="78.5" fill="white" transform="matrix(-0.736973 0.675923 0.675923 0.736973 58.4863 38)"/>
</clipPath>
</defs>
</svg>
