<svg width="12" height="18" viewBox="0 0 12 18" fill="none" xmlns="http://www.w3.org/2000/svg">
<path d="M11.15 6.25C11.15 6.91208 10.8905 7.92159 10.4166 9.1358C9.95264 10.3246 9.31816 11.6231 8.6466 12.8291C7.97452 14.0361 7.27705 15.1294 6.69408 15.9109C6.4202 16.278 6.18494 16.5582 6 16.7457C5.81507 16.5582 5.5798 16.278 5.30592 15.9109C4.72295 15.1294 4.02548 14.0361 3.3534 12.8291C2.68184 11.6231 2.04736 10.3246 1.58337 9.1358C1.10947 7.92159 0.85 6.91208 0.85 6.25C0.85 3.40573 3.15573 1.1 6 1.1C8.84427 1.1 11.15 3.40573 11.15 6.25ZM5.76069 16.9531C5.76077 16.9528 5.7647 16.9502 5.77225 16.9465C5.76439 16.9515 5.76061 16.9534 5.76069 16.9531ZM6.22776 16.9465C6.23532 16.9503 6.23924 16.9528 6.23931 16.9531C6.23938 16.9534 6.2356 16.9515 6.22776 16.9465Z" stroke="#6E7A80" stroke-width="1.7"/>
</svg>
