<svg width="224" height="197" viewBox="0 0 224 197" fill="none" xmlns="http://www.w3.org/2000/svg">
<path d="M88.3526 143.032L69.2037 116.554L65.7851 117.84L86.0134 145.811L88.3526 143.032Z" fill="url(#paint0_linear)"/>
<path d="M65.7851 117.84L56.6435 121.19L79.7817 153.185L86.0134 145.811L65.7851 117.84Z" fill="url(#paint1_linear)"/>
<g filter="url(#filter0_f)">
<path d="M88.352 143.032L69.2029 116.553L65.7843 117.84L86.0129 145.811L88.352 143.032Z" fill="#455A64"/>
</g>
<path d="M78.8547 156.822L52.9471 120.998C52.4777 120.349 52.6214 119.454 53.2704 118.985C53.9193 118.515 54.814 118.659 55.2833 119.308L81.1909 155.132C81.6603 155.781 81.5166 156.676 80.8676 157.145C80.2187 157.615 79.324 157.471 78.8547 156.822Z" fill="url(#paint2_linear)"/>
<path d="M53.8381 122.232C41.4286 125.574 32.4297 137.321 31.1701 141.593L35.6572 141.511C29.6219 145.876 24.5603 160.608 23.1993 169.796L65.8353 138.958L53.7732 122.279L53.8381 122.232Z" fill="url(#paint3_linear)"/>
<path d="M77.9163 155.525C70.8573 166.265 56.8834 171.133 52.4322 170.992L53.9155 166.756C47.8803 171.121 32.3053 171.315 23.1533 169.73L65.7893 138.893L77.8514 155.572L77.9163 155.525Z" fill="url(#paint4_linear)"/>
<path d="M58.2522 128.33C50.3975 130.453 44.725 137.916 43.8286 140.64L46.6493 140.577C42.8204 143.346 39.5983 152.695 38.7761 158.528L65.8375 138.955L58.1873 128.377L58.2522 128.33Z" fill="url(#paint5_linear)"/>
<path d="M73.5528 149.487C69.0773 156.282 60.2133 159.333 57.3457 159.331L58.289 156.672C54.4602 159.441 44.5732 159.574 38.7761 158.528L65.8375 138.955L73.4879 149.534L73.5528 149.487Z" fill="url(#paint6_linear)"/>
<path d="M178.099 82.0779L166.506 66.0479L153.397 75.5291L78.5732 129.648L92.5595 148.987C94.7654 152.038 99.0149 152.72 102.065 150.514L155.538 111.838C165.904 104.44 173.71 94.0496 178.099 82.0779Z" fill="url(#paint7_linear)"/>
<path d="M154.961 50.0816C142.218 50.5013 129.906 54.6614 119.588 62.1243L66.1146 100.8C63.0646 103.007 62.382 107.256 64.588 110.307L78.5743 129.646L153.398 75.528L166.507 66.0468L154.961 50.0816Z" fill="url(#paint8_linear)"/>
<path d="M178.098 82.0777L183.514 67.2881C185.08 62.8934 184.244 58.4571 181.803 55.0823L166.553 66.1127L178.098 82.0777Z" fill="url(#paint9_linear)"/>
<path d="M181.803 55.0823C179.363 51.7076 175.364 49.4592 170.747 49.6355L155.007 50.1475L166.599 66.1774L181.85 55.1471L181.803 55.0823Z" fill="url(#paint10_linear)"/>
<path d="M113.552 104.348C119.67 112.807 131.486 114.705 139.944 108.587C148.402 102.47 150.3 90.653 144.183 82.1941C138.066 73.7352 126.25 71.8373 117.791 77.9551C109.333 84.0728 107.435 95.8895 113.552 104.348Z" fill="#455A64"/>
<path d="M137.785 105.602C141.029 103.255 143.058 99.9096 143.763 96.237C143.503 96.4248 143.308 96.5656 143.049 96.7533C135.196 102.433 125.729 104.239 116.866 102.644C121.912 109.075 131.165 110.389 137.785 105.602Z" fill="url(#paint11_linear)"/>
<path d="M143.049 96.7533C143.308 96.5656 143.568 96.3778 143.763 96.237C144.359 93.2354 144.079 89.9783 142.721 87.0069C142.397 87.2415 142.119 87.5411 141.73 87.8228C134.202 93.2675 123.247 90.8302 118.358 84.0689C118.123 83.7444 117.841 83.355 117.672 82.9836C112.935 88.1884 112.219 96.2186 116.537 102.189C116.678 102.384 116.772 102.514 116.913 102.708C125.776 104.304 135.196 102.433 143.049 96.7533Z" fill="url(#paint12_linear)"/>
<path d="M141.73 87.8228C142.054 87.5881 142.444 87.3064 142.721 87.0069C142.353 86.0873 141.807 85.1966 141.197 84.3529C136.269 77.5386 126.764 76.0119 119.95 80.9404C119.106 81.5505 118.309 82.2257 117.672 82.9836C117.753 83.3232 118.076 83.6795 118.358 84.0689C123.755 91.5323 134.532 93.4796 141.73 87.8228Z" fill="url(#paint13_linear)"/>
<path d="M129.757 130.583L105.292 148.278L108.906 153.275L130.775 137.457L129.757 130.583Z" fill="url(#paint14_linear)"/>
<path d="M129.881 165.879C132.607 163.908 134.058 160.585 133.573 157.18L130.728 137.393L108.923 153.164L119.202 167.376C120.845 169.648 123.976 170.151 126.247 168.508L129.881 165.879Z" fill="url(#paint15_linear)"/>
<path d="M93.7596 80.8044L69.294 98.4998L65.7271 93.5675L87.5968 77.7496L93.7596 80.8044Z" fill="url(#paint16_linear)"/>
<path d="M60.279 69.6338C63.0046 67.6624 66.615 67.3245 69.6964 68.8519L87.5968 77.7496L65.7917 93.5208L55.5133 79.308C53.8706 77.0366 54.3736 73.9051 56.6449 72.2623L60.279 69.6338Z" fill="url(#paint17_linear)"/>
<path opacity="0.15" d="M99.7816 116.877L94.3574 150.651C93.8342 150.338 93.311 150.024 91.5275 147.558C89.744 145.092 79.5123 130.944 79.5123 130.944L99.7816 116.877Z" fill="#8FA3AD"/>
<path d="M73.2989 133.56C72.2194 132.067 72.5607 129.942 74.0532 128.863L94.5596 114.031C96.0522 112.951 98.1769 113.293 99.2563 114.785C100.336 116.278 99.9945 118.403 98.5019 119.482L77.9955 134.314C76.4381 135.44 74.3783 135.052 73.2989 133.56Z" fill="#30464E"/>
<defs>
<filter id="filter0_f" x="61.7842" y="112.553" width="30.5677" height="37.2579" filterUnits="userSpaceOnUse" color-interpolation-filters="sRGB">
<feFlood flood-opacity="0" result="BackgroundImageFix"/>
<feBlend mode="normal" in="SourceGraphic" in2="BackgroundImageFix" result="shape"/>
<feGaussianBlur stdDeviation="2" result="effect1_foregroundBlur"/>
</filter>
<linearGradient id="paint0_linear" x1="67.4133" y1="118.206" x2="87.2855" y2="151.766" gradientUnits="userSpaceOnUse">
<stop stop-color="#546E7A"/>
<stop offset="1" stop-color="#2C3D45"/>
</linearGradient>
<linearGradient id="paint1_linear" x1="67.4133" y1="118.206" x2="87.2855" y2="151.766" gradientUnits="userSpaceOnUse">
<stop stop-color="#546E7A"/>
<stop offset="1" stop-color="#2C3D45"/>
</linearGradient>
<linearGradient id="paint2_linear" x1="70.9466" y1="143.377" x2="57.257" y2="124.389" gradientUnits="userSpaceOnUse">
<stop stop-color="#34454E"/>
<stop offset="1" stop-color="#455A64"/>
</linearGradient>
<linearGradient id="paint3_linear" x1="31.206" y1="149.119" x2="68.0003" y2="162" gradientUnits="userSpaceOnUse">
<stop stop-color="#FF5E2C"/>
<stop offset="1" stop-color="#6F1C02"/>
</linearGradient>
<linearGradient id="paint4_linear" x1="31.206" y1="149.119" x2="68.0003" y2="162" gradientUnits="userSpaceOnUse">
<stop stop-color="#FF5E2C"/>
<stop offset="1" stop-color="#6F1C02"/>
</linearGradient>
<linearGradient id="paint5_linear" x1="44.896" y1="143.817" x2="72.2731" y2="153.973" gradientUnits="userSpaceOnUse">
<stop stop-color="#FEC807"/>
<stop offset="1" stop-color="#824102"/>
</linearGradient>
<linearGradient id="paint6_linear" x1="44.896" y1="143.817" x2="72.2731" y2="153.973" gradientUnits="userSpaceOnUse">
<stop stop-color="#FEC807"/>
<stop offset="1" stop-color="#824102"/>
</linearGradient>
<linearGradient id="paint7_linear" x1="119.519" y1="99.2205" x2="138.066" y2="124.39" gradientUnits="userSpaceOnUse">
<stop stop-color="#C4325B"/>
<stop offset="1" stop-color="#992747"/>
</linearGradient>
<linearGradient id="paint8_linear" x1="107.598" y1="70.5159" x2="127.47" y2="97.4518" gradientUnits="userSpaceOnUse">
<stop stop-color="#FF779D"/>
<stop offset="0.453125" stop-color="#CA2D59"/>
<stop offset="1" stop-color="#C2335B"/>
</linearGradient>
<linearGradient id="paint9_linear" x1="164.558" y1="49.3201" x2="184.43" y2="77.1389" gradientUnits="userSpaceOnUse">
<stop stop-color="#637E8B"/>
<stop offset="1" stop-color="#546E7A" stop-opacity="0"/>
</linearGradient>
<linearGradient id="paint10_linear" x1="164.558" y1="49.3201" x2="184.43" y2="77.1389" gradientUnits="userSpaceOnUse">
<stop stop-color="#637E8B"/>
<stop offset="1" stop-color="#546E7A" stop-opacity="0"/>
</linearGradient>
<linearGradient id="paint11_linear" x1="109.507" y1="78.7801" x2="130.871" y2="118.518" gradientUnits="userSpaceOnUse">
<stop stop-color="#4FCFFF"/>
<stop offset="1" stop-color="#2686AA"/>
</linearGradient>
<linearGradient id="paint12_linear" x1="109.507" y1="78.7801" x2="130.871" y2="118.518" gradientUnits="userSpaceOnUse">
<stop stop-color="#4FCFFF"/>
<stop offset="1" stop-color="#2686AA"/>
</linearGradient>
<linearGradient id="paint13_linear" x1="109.507" y1="78.7801" x2="130.871" y2="118.518" gradientUnits="userSpaceOnUse">
<stop stop-color="#4FCFFF"/>
<stop offset="1" stop-color="#2686AA"/>
</linearGradient>
<linearGradient id="paint14_linear" x1="114.22" y1="141.17" x2="129.575" y2="167.282" gradientUnits="userSpaceOnUse">
<stop stop-color="#2C6B83"/>
<stop offset="0.380208" stop-color="#2686AA"/>
<stop offset="0.484375" stop-color="#3AA2C9"/>
</linearGradient>
<linearGradient id="paint15_linear" x1="114.22" y1="141.17" x2="129.575" y2="167.282" gradientUnits="userSpaceOnUse">
<stop stop-color="#2C6B83"/>
<stop offset="0.380208" stop-color="#2686AA"/>
<stop offset="0.484375" stop-color="#3AA2C9"/>
</linearGradient>
<linearGradient id="paint16_linear" x1="49.1713" y1="68.6319" x2="67.5296" y2="112.451" gradientUnits="userSpaceOnUse">
<stop stop-color="#4FCFFF"/>
<stop offset="1" stop-color="#2686AA"/>
</linearGradient>
<linearGradient id="paint17_linear" x1="49.1713" y1="68.6319" x2="67.5296" y2="112.451" gradientUnits="userSpaceOnUse">
<stop stop-color="#4FCFFF"/>
<stop offset="1" stop-color="#2686AA"/>
</linearGradient>
</defs>
</svg>
