<svg width="19" height="14" viewBox="0 0 19 14" fill="none" xmlns="http://www.w3.org/2000/svg">
<path d="M1.97759 11.2931V2.9214L6.47814 7.08038L1.99314 11.4437C1.98306 11.3953 1.97759 11.3451 1.97759 11.2931ZM8.50796 8.95268L8.50809 8.9528C9.17943 9.57285 10.2192 9.57384 10.8906 8.95272L10.8907 8.95266L12.0985 7.83411L16.382 12.0224H3.00517L7.30636 7.84031L8.50796 8.95268ZM2.65517 0.85C1.64936 0.85 0.85 1.6943 0.85 2.70044V11.2931C0.85 12.2985 1.64864 13.15 2.65517 13.15H16.7241C17.7307 13.15 18.5293 12.2985 18.5293 11.2931V2.70044C18.5293 1.69431 17.73 0.85 16.7241 0.85H2.65517ZM2.65517 1.97759H16.7241C16.7382 1.97759 16.7522 1.97808 16.7661 1.97905L10.1244 8.12481C10.1244 8.12482 10.1244 8.12483 10.1244 8.12483C9.9914 8.24787 9.84264 8.30421 9.69957 8.30422C9.55648 8.30422 9.40753 8.24788 9.27418 8.12473L2.61971 1.97874C2.63152 1.97798 2.64334 1.97759 2.65517 1.97759ZM12.9203 7.07395L17.4016 2.9281V11.293C17.4016 11.3414 17.3973 11.3882 17.389 11.4333L12.9203 7.07395Z" fill="#6E7A80" stroke="#6E7A80" stroke-width="0.3"/>
</svg>
