<svg width="26" height="26" viewBox="0 0 26 26" fill="none" xmlns="http://www.w3.org/2000/svg">
<g clip-path="url(#clip0)">
<path d="M3.76725 9.01074H3.70321C2.88225 9.01074 2.21289 9.68223 2.21289 10.5011V16.9896C2.21289 17.8117 2.88225 18.481 3.70321 18.481H3.76834C4.58929 18.481 5.25865 17.8095 5.25865 16.9896V10.501C5.25756 9.68223 4.58716 9.01074 3.76725 9.01074Z" fill="white"/>
<path d="M5.97168 19.4944C5.97168 20.248 6.58764 20.8619 7.34134 20.8619H8.80498V24.3667C8.80498 25.1897 9.47647 25.8591 10.2953 25.8591H10.3593C11.1814 25.8591 11.8518 25.1887 11.8518 24.3667V20.8619H13.8972V24.3667C13.8972 25.1897 14.5708 25.8591 15.3897 25.8591H15.4527C16.2747 25.8591 16.944 25.1887 16.944 24.3667V20.8619H18.4087C19.1613 20.8619 19.7773 20.248 19.7773 19.4944V9.24902H5.97168V19.4944Z" fill="white"/>
<path d="M16.3131 3.03611L17.4757 1.24158C17.5504 1.12839 17.5173 0.973636 17.4031 0.899945C17.2899 0.825214 17.1351 0.856195 17.0614 0.972548L15.8562 2.82904C14.952 2.45861 13.9421 2.25045 12.8756 2.25045C11.808 2.25045 10.8002 2.45861 9.8939 2.82904L8.69078 0.972548C8.61714 0.856195 8.46124 0.825214 8.34702 0.899945C8.23279 0.973587 8.19968 1.12839 8.27441 1.24158L9.43804 3.03611C7.34028 4.06418 5.92578 6.0018 5.92578 8.22443C5.92578 8.36107 5.93434 8.49559 5.94607 8.62901H19.8061C19.8178 8.49559 19.8253 8.36107 19.8253 8.22443C19.8254 6.0018 18.4098 4.06418 16.3131 3.03611ZM9.66223 6.24945C9.29392 6.24945 8.995 5.95265 8.995 5.5833C8.995 5.21395 9.29392 4.9182 9.66223 4.9182C10.0327 4.9182 10.3295 5.2139 10.3295 5.5833C10.3295 5.9527 10.0305 6.24945 9.66223 6.24945ZM16.0879 6.24945C15.7196 6.24945 15.4206 5.95265 15.4206 5.5833C15.4206 5.21395 15.7196 4.9182 16.0879 4.9182C16.4572 4.9182 16.754 5.2139 16.754 5.5833C16.754 5.95265 16.4572 6.24945 16.0879 6.24945Z" fill="white"/>
<path d="M22.0456 9.01074H21.9837C21.1627 9.01074 20.4912 9.68223 20.4912 10.5011V16.9896C20.4912 17.8117 21.1638 18.481 21.9837 18.481H22.0467C22.8686 18.481 23.537 17.8095 23.537 16.9896V10.501C23.537 9.68223 22.8665 9.01074 22.0456 9.01074Z" fill="white"/>
</g>
<rect x="0.401581" y="0.885956" width="24.9468" height="24.9468" stroke="#42BDEB" stroke-opacity="0.3" stroke-width="0.053163"/>
<defs>
<clipPath id="clip0">
<rect x="0.375" y="0.859375" width="25" height="25" fill="white"/>
</clipPath>
</defs>
</svg>
