<svg width="20" height="25" viewBox="0 0 20 25" fill="none" xmlns="http://www.w3.org/2000/svg">
<path d="M12.9798 3.98228C13.8106 2.9585 14.3481 1.59347 14.2015 0.179687C13.0287 0.228439 11.6116 0.959706 10.732 1.98348C9.95011 2.861 9.31484 4.32354 9.51031 5.68857C10.8297 5.73732 12.198 4.9573 12.9798 3.98228Z" fill="white"/>
<path d="M15.9607 12.8059C15.9607 11.8309 16.2051 11.0509 16.5471 10.4171C17.2801 9.00334 18.4529 8.32083 18.5018 8.27207C17.1335 6.22452 14.9834 5.93202 14.2015 5.93202C12.3935 5.73701 10.6343 7.00454 9.70581 7.00454C8.77734 7.00454 7.36021 5.93202 5.84535 5.98077C3.84182 6.02952 2.03376 7.1508 1.00756 8.95459C0.665492 9.5396 0.470026 10.1246 0.27456 10.7584C-0.605039 14.2197 0.763225 18.4611 2.47356 20.9961C3.45089 22.4587 4.62368 24.0675 6.18741 24.0187C7.65341 23.97 8.23981 23.0437 10.0479 23.0437C11.8559 23.0437 12.3446 24.0187 13.9083 23.97C15.5209 23.9212 16.4983 22.5074 17.5245 21.0449C18.6484 19.3873 19.1371 17.7298 19.1371 17.6323C19.0882 17.6323 16.0096 16.4135 15.9607 12.8059Z" fill="white"/>
</svg>
