<svg width="1175" height="228" viewBox="0 0 1175 228" fill="none" xmlns="http://www.w3.org/2000/svg">
<path opacity="0.3" fill-rule="evenodd" clip-rule="evenodd" d="M-25 115.333L15 129.417C55 143.5 135 171.667 215 181.056C295 190.444 375 181.056 455 166.972C535 152.889 615 134.111 695 129.417C775 124.722 855 134.111 935 124.722C1015 115.333 1095 87.1667 1135 73.0833L1175 59V228H1135C1095 228 1015 228 935 228C855 228 775 228 695 228C615 228 535 228 455 228C375 228 295 228 215 228C135 228 55 228 15 228H-25V115.333Z" fill="url(#paint0_linear)"/>
<path opacity="0.3" fill-rule="evenodd" clip-rule="evenodd" d="M-25 62.6525L25 67.2455C75 71.8384 175 81.0244 275 67.2455C375 53.4665 475 16.7226 575 7.53664C675 -1.64934 775 16.7226 875 21.3156C975 25.9086 1075 16.7226 1125 12.1296L1175 7.53664V228H1125C1075 228 975 228 875 228C775 228 675 228 575 228C475 228 375 228 275 228C175 228 75 228 25 228H-25V62.6525Z" fill="url(#paint1_linear)"/>
<defs>
<linearGradient id="paint0_linear" x1="575" y1="59" x2="575" y2="228" gradientUnits="userSpaceOnUse">
<stop stop-color="#42BDEB"/>
<stop offset="1" stop-color="#42BDEB" stop-opacity="0"/>
</linearGradient>
<linearGradient id="paint1_linear" x1="575" y1="5" x2="575" y2="228" gradientUnits="userSpaceOnUse">
<stop stop-color="#42BDEB"/>
<stop offset="1" stop-color="#42BDEB" stop-opacity="0"/>
</linearGradient>
</defs>
</svg>
