<svg width="184" height="175" viewBox="0 0 184 175" fill="none" xmlns="http://www.w3.org/2000/svg">
<path d="M21.5138 7.40109L21.8084 7.51933L2.72008 100.985L2.01312 100.866C-0.461293 100.334 -0.166731 99.211 0.3635 96.4915L16.5061 12.1305C16.565 11.894 16.6239 11.5985 16.6239 11.3029C17.2131 8.11053 18.5681 6.1005 21.5138 7.40109Z" fill="url(#paint0_linear)"/>
<path d="M21.8676 7.57871L128.267 60.8438C129.269 61.3758 129.858 62.4991 129.681 63.6223L113.126 156.26L2.7793 100.985L19.2165 8.87927C19.4521 7.69691 20.7482 6.98753 21.8676 7.57871Z" fill="url(#paint1_linear)"/>
<path d="M6.90332 98.9148L22.3978 12.0117L125.911 63.7988L110.357 150.761L6.90332 98.9148Z" fill="url(#paint2_linear)"/>
<path opacity="0.3" d="M67.2318 34.4172L14.3855 56.8819L17.0955 41.6296L51.9729 26.791L67.2318 34.4172ZM125.911 63.7987L77.424 39.5013L12.5591 67.1093L6.90332 98.9147L36.3606 113.635L123.613 76.509L125.911 63.7987ZM111.948 141.716L121.08 90.579L50.2644 120.729L101.284 146.268L111.948 141.716Z" fill="#FF346D"/>
<path d="M67.9386 119.724L178.286 175L115.011 162.23L4.60547 106.955L67.9386 119.724Z" fill="url(#paint3_linear)"/>
<path d="M2.07178 100.926L2.77876 101.044L73.6529 115.351C72.8281 117.893 70.7661 119.725 68.763 119.784C68.4685 119.784 68.2328 119.784 67.9382 119.725L4.66403 106.956C2.4842 106.483 1.12915 103.763 2.07178 100.926Z" fill="url(#paint4_linear)"/>
<path opacity="0.3" d="M44.0188 111.153L43.6653 112.099C43.3707 112.276 43.194 112.394 42.8994 112.572L38.7754 111.744C38.6575 111.449 38.5397 111.271 38.4219 111.035L38.7754 110.089L44.0188 111.153ZM50.7939 112.69L46.3753 111.803L45.904 113.104L50.3226 113.991L50.7939 112.69ZM57.5691 114.05L53.1505 113.163L52.6792 114.464L57.0978 115.35L57.5691 114.05ZM62.0466 115.114C61.752 115.055 61.4575 115.232 61.3396 115.528C61.2218 115.823 61.3985 116.119 61.6342 116.178C61.9288 116.237 62.2234 116.06 62.2823 115.764C62.459 115.469 62.2823 115.173 62.0466 115.114ZM64.1086 115.587C63.8141 115.528 63.5195 115.705 63.4016 116.001C63.2838 116.296 63.4606 116.592 63.6962 116.651C63.9908 116.71 64.2854 116.533 64.3443 116.237C64.521 115.882 64.4032 115.646 64.1086 115.587Z" fill="#141414"/>
<path d="M183.882 170.862C183.941 170.743 183.941 170.684 184 170.566L73.6528 115.291C73.5939 115.409 73.535 115.587 73.4761 115.705C73.4761 115.764 73.4172 115.764 73.4172 115.823C73.3583 115.941 73.2994 116.06 73.2405 116.237C73.1815 116.355 73.1226 116.473 73.0637 116.592C73.0637 116.592 73.0637 116.651 73.0048 116.651C72.9459 116.769 72.887 116.887 72.7691 117.005C72.7691 117.005 72.7691 117.065 72.7102 117.065C72.6513 117.183 72.5924 117.301 72.4746 117.36C72.4746 117.36 72.4746 117.36 72.4746 117.419C72.4156 117.538 72.2978 117.656 72.2389 117.715L72.18 117.774C72.1211 117.892 72.0032 117.951 71.8854 118.07C71.8854 118.07 71.8854 118.07 71.8265 118.129C71.7676 118.188 71.6498 118.306 71.5908 118.365L71.5319 118.424C71.473 118.483 71.4141 118.543 71.2963 118.602C71.2374 118.602 71.2374 118.661 71.1784 118.661C71.1195 118.72 71.0606 118.779 70.9428 118.838C70.8839 118.838 70.8839 118.897 70.825 118.897C70.766 118.897 70.766 118.956 70.7071 118.956C70.5893 119.015 70.5304 119.075 70.4125 119.134C70.3536 119.134 70.2947 119.193 70.2947 119.193C70.2358 119.252 70.118 119.252 70.0591 119.311C70.0002 119.311 69.9412 119.37 69.8823 119.37C69.8234 119.429 69.7056 119.429 69.6467 119.488C69.5878 119.488 69.5288 119.548 69.4699 119.548C69.3521 119.548 69.2932 119.607 69.1754 119.607C69.1164 119.607 69.1164 119.607 69.0575 119.607C68.9397 119.607 68.7629 119.666 68.6451 119.666C68.3505 119.666 68.1149 119.666 67.8203 119.607L178.167 174.882C178.403 174.941 178.697 174.941 178.992 174.941C179.11 174.941 179.287 174.941 179.404 174.882C179.463 174.882 179.522 174.882 179.522 174.882C179.64 174.882 179.699 174.823 179.817 174.823C179.876 174.823 179.935 174.763 179.994 174.763C180.053 174.763 180.17 174.704 180.229 174.645C180.288 174.645 180.347 174.586 180.406 174.586C180.524 174.527 180.583 174.527 180.642 174.468C180.701 174.468 180.701 174.409 180.759 174.409C180.759 174.409 180.76 174.409 180.818 174.409C180.936 174.35 180.995 174.291 181.113 174.231L181.172 174.172C181.231 174.172 181.231 174.113 181.29 174.113C181.349 174.054 181.408 174.054 181.466 173.995C181.466 173.995 181.466 173.995 181.525 173.995C181.584 173.995 181.584 173.936 181.643 173.936C181.702 173.877 181.761 173.877 181.761 173.818L181.82 173.758L181.879 173.699L181.938 173.64C181.997 173.581 182.056 173.522 182.115 173.463C182.115 173.463 182.115 173.463 182.173 173.463C182.232 173.404 182.291 173.345 182.35 173.226L182.409 173.167L182.468 173.108L182.527 173.049C182.586 172.99 182.645 172.931 182.704 172.813C182.704 172.813 182.704 172.813 182.704 172.753C182.763 172.694 182.763 172.635 182.822 172.576C182.88 172.517 182.88 172.458 182.939 172.458C182.939 172.458 182.939 172.399 182.998 172.399C182.998 172.399 182.998 172.399 182.998 172.34C183.057 172.281 183.116 172.162 183.175 172.103C183.175 172.103 183.175 172.044 183.234 172.044L183.293 171.985C183.293 171.926 183.352 171.926 183.352 171.867C183.411 171.748 183.47 171.689 183.47 171.571C183.528 171.453 183.587 171.394 183.587 171.276C183.587 171.216 183.587 171.216 183.646 171.157C183.646 171.098 183.705 171.098 183.705 171.039C183.823 170.98 183.882 170.921 183.882 170.862Z" fill="url(#paint5_linear)"/>
<path d="M103.7 81.7998L108.1 73.5998L104.6 63.4998V57.2998L115.4 63.4998V69.6998L110.8 77.6998C110.7 77.7998 110.6 77.8998 110.5 77.9998L103.7 81.7998Z" fill="#42BDEB"/>
<path opacity="0.2" d="M103.7 81.7998L108.1 73.5998L104.6 63.4998V57.2998L115.4 63.4998V69.6998L110.8 77.6998C110.7 77.7998 110.6 77.8998 110.5 77.9998L103.7 81.7998Z" fill="black"/>
<path d="M78.0008 7.8998C78.0008 5.7998 79.4008 3.2998 81.2008 2.2998L83.8008 0.799805C85.6008 -0.200195 88.5008 -0.200195 90.3008 0.799805L130.601 24.0998C132.401 25.0998 133.801 27.5998 133.801 29.6998V73.9998C133.801 76.0998 132.401 78.5998 130.601 79.5998L128.001 81.0998C126.201 82.0998 123.301 82.0998 121.501 81.0998L108.501 73.5998L103.901 81.5998C103.601 82.0998 102.801 81.9998 102.701 81.4998L97.8008 67.3998L81.2008 57.7998C79.4008 56.7998 78.0008 54.2998 78.0008 52.1998V7.8998Z" fill="url(#paint6_linear)"/>
<path d="M133.8 73.9996C133.8 76.0996 132.4 78.5996 130.6 79.5996L128 81.0996C126.4 81.9996 123.9 82.0996 122.1 81.3996C123.6 81.9996 124.8 81.0996 124.8 79.2996V34.9996C124.8 33.9996 124.4 32.7996 123.9 31.7996L133 26.5996C133.6 27.5996 133.9 28.6996 133.9 29.7996V73.9996H133.8Z" fill="url(#paint7_linear)"/>
<path d="M78.1007 6.9998C78.5007 5.5998 79.7007 5.1998 81.2007 6.0998L121.501 29.2998C122.401 29.7998 123.401 30.9998 124.001 31.9998L133.02 26.6252C132.385 25.4369 131.419 24.5517 130.519 24.0517L90.3007 0.799805C88.5007 -0.200195 85.6007 -0.200195 83.8007 0.799805L81.2007 2.2998C79.7007 3.1998 78.4007 5.0998 78.1007 6.9998Z" fill="url(#paint8_linear)"/>
<path d="M118.801 52.2998C118.801 51.8998 118.701 51.5998 118.601 51.3998C118.501 51.0998 118.301 50.8998 118.101 50.4998L109.301 36.2998C109.201 36.1998 109.201 36.1998 109.201 36.0998L109.101 35.9998C109.001 35.8998 108.901 35.8998 108.801 35.9998C108.701 36.0998 108.701 36.1998 108.701 36.3998V41.9998C108.701 42.3998 108.801 42.7998 109.001 43.0998C109.201 43.3998 109.301 43.6998 109.401 43.7998L113.901 50.6998L109.401 52.7998C109.301 52.7998 109.101 52.8998 109.001 52.9998C108.801 53.0998 108.701 53.3998 108.701 53.7998V57.6998C108.701 57.8998 108.701 58.0998 108.801 58.2998C108.901 58.4998 109.001 58.5998 109.101 58.6998H109.201H109.301L118.101 54.6998C118.301 54.5998 118.501 54.4998 118.601 54.3998C118.701 54.2998 118.801 53.9998 118.801 53.6998V52.2998Z" fill="white"/>
<path d="M99.7006 30.3994C99.6006 30.0994 99.5006 29.7994 99.4006 29.4994C99.3006 29.1994 99.0006 28.9994 98.8006 28.7994L95.9006 27.0994C95.8006 26.9994 95.7006 26.9994 95.6006 27.0994C95.5006 27.1994 95.5006 27.2994 95.5006 27.4994C95.5006 27.5994 95.5006 27.6994 95.5006 27.7994L102.801 59.4994C102.901 59.7994 103.001 59.9994 103.101 60.3994C103.201 60.6994 103.501 60.8994 103.801 61.0994L106.701 62.7994C106.801 62.8994 106.901 62.8994 107.001 62.7994C107.101 62.6994 107.101 62.5994 107.101 62.3994C107.101 62.2994 107.101 62.1994 107.101 62.0994L99.7006 30.3994Z" fill="white"/>
<path d="M83.6012 35.499C83.6012 35.899 83.7012 36.199 83.8012 36.399C83.9012 36.699 84.1012 36.899 84.3012 37.299L93.1012 51.499C93.2012 51.599 93.2012 51.599 93.2012 51.699L93.3012 51.799C93.4012 51.899 93.5012 51.899 93.6012 51.799C93.7012 51.699 93.7012 51.599 93.7012 51.399V45.899C93.7012 45.499 93.6012 45.099 93.4012 44.799C93.2012 44.499 93.1012 44.299 93.0012 44.099L89.2012 38.199L93.0012 36.699C93.1012 36.699 93.3012 36.599 93.4012 36.499C93.6012 36.399 93.7012 36.099 93.7012 35.699V29.999C93.7012 29.799 93.7012 29.599 93.6012 29.399C93.5012 29.199 93.4012 29.099 93.3012 28.999H93.2012H93.1012L84.3012 32.999C84.1012 33.099 83.9012 33.199 83.8012 33.299C83.7012 33.399 83.6012 33.699 83.6012 33.999V35.499Z" fill="white"/>
<defs>
<linearGradient id="paint0_linear" x1="18.6085" y1="4.90763" x2="3.21818" y2="101.022" gradientUnits="userSpaceOnUse">
<stop offset="0.00500165" stop-color="#606060"/>
<stop offset="0.1994" stop-color="#5C5C5C"/>
<stop offset="0.401" stop-color="#504F50"/>
<stop offset="0.5602" stop-color="#424041"/>
<stop offset="0.6956" stop-color="#3E3D3D"/>
<stop offset="0.8194" stop-color="#333233"/>
<stop offset="0.9384" stop-color="#212021"/>
<stop offset="1" stop-color="#141414"/>
</linearGradient>
<linearGradient id="paint1_linear" x1="137.883" y1="72.8836" x2="6.4479" y2="89.3487" gradientUnits="userSpaceOnUse">
<stop offset="0.00500165" stop-color="#606060"/>
<stop offset="0.1994" stop-color="#5C5C5C"/>
<stop offset="0.401" stop-color="#504F50"/>
<stop offset="0.5602" stop-color="#424041"/>
<stop offset="0.6956" stop-color="#3E3D3D"/>
<stop offset="0.8194" stop-color="#333233"/>
<stop offset="0.9384" stop-color="#212021"/>
<stop offset="1" stop-color="#141414"/>
</linearGradient>
<linearGradient id="paint2_linear" x1="66.407" y1="12.0117" x2="66.407" y2="150.761" gradientUnits="userSpaceOnUse">
<stop stop-color="#CE436B"/>
<stop offset="1" stop-color="#6B3343"/>
</linearGradient>
<linearGradient id="paint3_linear" x1="73.5192" y1="185.178" x2="93.0428" y2="137.383" gradientUnits="userSpaceOnUse">
<stop offset="0.00500165" stop-color="#606060"/>
<stop offset="0.0934604" stop-color="#5C5C5C"/>
<stop offset="0.1852" stop-color="#504F50"/>
<stop offset="0.2576" stop-color="#424041"/>
<stop offset="0.4862" stop-color="#3E3D3D"/>
<stop offset="0.6952" stop-color="#333233"/>
<stop offset="0.8959" stop-color="#212021"/>
<stop offset="1" stop-color="#141414"/>
</linearGradient>
<linearGradient id="paint4_linear" x1="-30.8537" y1="81.5311" x2="99.8894" y2="136.524" gradientUnits="userSpaceOnUse">
<stop offset="0.00500165" stop-color="#606060"/>
<stop offset="0.1994" stop-color="#5C5C5C"/>
<stop offset="0.401" stop-color="#504F50"/>
<stop offset="0.5602" stop-color="#424041"/>
<stop offset="0.6956" stop-color="#3E3D3D"/>
<stop offset="0.8194" stop-color="#333233"/>
<stop offset="0.9384" stop-color="#212021"/>
<stop offset="1" stop-color="#141414"/>
</linearGradient>
<linearGradient id="paint5_linear" x1="186.799" y1="173.809" x2="49.4027" y2="109.564" gradientUnits="userSpaceOnUse">
<stop offset="0.00500165" stop-color="#606060"/>
<stop offset="0.1511" stop-color="#5C5C5C"/>
<stop offset="0.3027" stop-color="#504F50"/>
<stop offset="0.4224" stop-color="#424041"/>
<stop offset="0.595" stop-color="#3E3D3D"/>
<stop offset="0.7528" stop-color="#333233"/>
<stop offset="0.9044" stop-color="#212021"/>
<stop offset="0.983" stop-color="#141414"/>
</linearGradient>
<linearGradient id="paint6_linear" x1="73.7633" y1="3.73784" x2="120.221" y2="83.74" gradientUnits="userSpaceOnUse">
<stop stop-color="#66C1E3"/>
<stop offset="1" stop-color="#2686AA"/>
</linearGradient>
<linearGradient id="paint7_linear" x1="128" y1="26.5996" x2="128" y2="81.859" gradientUnits="userSpaceOnUse">
<stop stop-color="#266D87"/>
<stop offset="1" stop-color="#2D7F9D"/>
</linearGradient>
<linearGradient id="paint8_linear" x1="85.5007" y1="2.99976" x2="125.888" y2="30.2095" gradientUnits="userSpaceOnUse">
<stop stop-color="#87DDFD"/>
<stop offset="0.855014" stop-color="#3F99BA"/>
<stop offset="1" stop-color="#276F8A"/>
</linearGradient>
</defs>
</svg>
