<svg width="28" height="28" viewBox="0 0 28 28" fill="none" xmlns="http://www.w3.org/2000/svg">
<path d="M6.53351 26.3102H1.80248C1.46455 26.3102 1.23926 26.0849 1.23926 25.747V10.4275C1.23926 10.0895 1.46455 9.86426 1.80248 9.86426H6.64615C6.98409 9.86426 7.20937 10.0895 7.20937 10.4275V25.747C7.09673 26.0849 6.87144 26.3102 6.53351 26.3102ZM2.36569 25.1838H6.08294V10.9907H2.36569V25.1838Z" fill="#42BDEB" stroke="#42BDEB" stroke-width="0.8"/>
<path d="M6.53351 26.3102H1.80248C1.46455 26.3102 1.23926 26.0849 1.23926 25.747V10.4275C1.23926 10.0895 1.46455 9.86426 1.80248 9.86426H6.64615C6.98409 9.86426 7.20937 10.0895 7.20937 10.4275V25.747C7.09673 26.0849 6.87144 26.3102 6.53351 26.3102ZM2.36569 25.1838H6.08294V10.9907H2.36569V25.1838Z" fill="#42BDEB" stroke="#42BDEB" stroke-width="0.8"/>
<path d="M6.53351 26.3102H1.80248C1.46455 26.3102 1.23926 26.0849 1.23926 25.747V10.4275C1.23926 10.0895 1.46455 9.86426 1.80248 9.86426H6.64615C6.98409 9.86426 7.20937 10.0895 7.20937 10.4275V25.747C7.09673 26.0849 6.87144 26.3102 6.53351 26.3102ZM2.36569 25.1838H6.08294V10.9907H2.36569V25.1838Z" fill="#42BDEB" stroke="#42BDEB" stroke-width="0.8"/>
<path d="M26.5518 26.3265H21.0323C20.6944 26.3265 20.4691 26.1013 20.4691 25.7633V19.23C20.4691 17.8783 20.1311 16.3013 18.3288 16.3013C17.0898 16.3013 16.5265 17.0898 16.1886 17.8783C16.076 18.1035 16.076 18.4415 16.076 18.7794V25.876C16.076 26.2139 15.8507 26.4392 15.5127 26.4392H10.2185C10.1058 26.4392 9.88056 26.3265 9.76792 26.3265C9.65527 26.3265 9.65527 25.876 9.65527 25.7633C9.65527 25.6507 9.65527 11.6829 9.65527 10.4438C9.65527 10.3311 9.65527 10.1058 9.76792 9.9932C9.88056 9.9932 9.9932 9.88056 10.2185 9.88056H15.6254C15.9633 9.88056 16.1886 10.1058 16.1886 10.4438V11.1196C17.0898 10.3311 18.5541 9.65527 20.4691 9.65527C24.6369 9.65527 27.115 12.584 27.115 17.2024V25.7633C27.115 26.1013 26.8898 26.3265 26.5518 26.3265ZM21.5955 25.2001H25.9886V17.2024C25.9886 13.2599 23.961 10.7817 20.4691 10.7817C17.8783 10.7817 16.4139 12.1334 16.1886 12.9219C16.076 13.1472 15.8507 13.3725 15.5127 13.2599C15.2875 13.2599 15.0622 13.0346 15.0622 12.6967V11.007H10.7817C10.7817 13.5978 10.7817 22.7219 10.7817 25.2001H15.0622V18.6668C15.0622 18.2162 15.0622 17.7656 15.1748 17.315C15.738 15.8507 16.8645 15.0622 18.3288 15.0622C20.3564 15.0622 21.5955 16.5265 21.5955 19.1173V25.2001Z" fill="#42BDEB" stroke="#42BDEB" stroke-width="0.8"/>
<path d="M4.05543 7.38651C2.02784 7.38651 0.563477 6.03479 0.563477 4.23249C0.563477 2.31754 2.02784 0.96582 4.05543 0.96582C6.08302 0.96582 7.43474 2.31754 7.54738 4.11984C7.54738 6.03479 6.08302 7.38651 4.05543 7.38651ZM4.05543 2.09226C2.59106 2.09226 1.68991 2.88076 1.68991 4.23249C1.68991 5.47157 2.59106 6.37272 4.05543 6.37272C5.5198 6.37272 6.42095 5.58421 6.42095 4.23249C6.42095 2.88076 5.5198 2.09226 4.05543 2.09226Z" fill="#42BDEB" stroke="#42BDEB" stroke-width="0.8"/>
</svg>
