<svg width="16" height="16" viewBox="0 0 16 16" fill="none" xmlns="http://www.w3.org/2000/svg">
<path d="M14.8982 11.4279V13.5247C14.899 13.7194 14.8592 13.912 14.7812 14.0904C14.7032 14.2687 14.5888 14.4288 14.4454 14.5604C14.302 14.692 14.1326 14.7922 13.9482 14.8545C13.7638 14.9169 13.5685 14.9401 13.3746 14.9225C11.2239 14.6889 9.15801 13.9539 7.34292 12.7769C5.65421 11.7038 4.22248 10.2721 3.1494 8.58334C1.96821 6.76001 1.23314 4.68407 1.00372 2.52371C0.986254 2.33044 1.00922 2.13564 1.07117 1.95173C1.13311 1.76782 1.23267 1.59882 1.3635 1.4555C1.49433 1.31217 1.65358 1.19766 1.83109 1.11925C2.00861 1.04084 2.20051 1.00025 2.39457 1.00007H4.49133C4.83052 0.996729 5.15935 1.11684 5.41653 1.33802C5.67371 1.55919 5.84169 1.86634 5.88917 2.20221C5.97766 2.87322 6.14179 3.53206 6.37841 4.16617C6.47244 4.41633 6.4928 4.68821 6.43705 4.94958C6.38131 5.21095 6.25181 5.45086 6.0639 5.64089L5.17627 6.52852C6.17122 8.2783 7.62001 9.72709 9.36978 10.722L10.2574 9.83441C10.4474 9.6465 10.6874 9.51699 10.9487 9.46125C11.2101 9.40551 11.482 9.42586 11.7321 9.51989C12.3662 9.75651 13.0251 9.92064 13.6961 10.0091C14.0356 10.057 14.3457 10.228 14.5673 10.4896C14.789 10.7512 14.9067 11.0852 14.8982 11.4279Z" stroke="#6E7A80" stroke-width="1.39784" stroke-linecap="round" stroke-linejoin="round"/>
</svg>
