<svg width="58" height="51" viewBox="0 0 58 51" fill="none" xmlns="http://www.w3.org/2000/svg">
<rect opacity="0.3" width="57.9473" height="50.0454" rx="5.00454" fill="black"/>
<path d="M22.8311 33.9539L21.0354 28.5361H12.8783L11.0216 33.9539L13.5479 34.5931V35.9019H6.42561V34.5931L8.92145 33.9539L16.2263 13.6829H19.057L26.2705 33.9539L28.7055 34.5931V35.9019H20.3353V34.5931L22.8311 33.9539ZM17.0481 16.3918L13.487 26.7708H20.4571L17.1699 16.3918H17.0481ZM45.102 24.2749C44.7367 24.559 44.3106 24.8025 43.8236 25.0054C43.3366 25.2083 42.738 25.3808 42.0278 25.5228C42.3931 25.8881 42.7989 26.436 43.2453 27.1664L47.2934 34.0148L50.0023 34.5931V35.9019H43.7323V34.5931L39.3494 26.0707H35.6361V33.9539L38.5276 34.5931V35.9019H30.0357V34.5931L32.5924 33.9539V15.9352L30.0357 15.296V13.9872H40.506C42.3728 13.9872 43.8845 14.3728 45.0411 15.1438C45.7919 15.6308 46.3702 16.3004 46.776 17.1527C47.2021 18.0049 47.4152 18.8571 47.4152 19.7094C47.4152 20.5616 47.2021 21.4037 46.776 22.2357C46.3702 23.0473 45.8122 23.7271 45.102 24.2749ZM35.6361 24.3054H39.9886C41.1046 24.3054 42.0278 23.9909 42.7583 23.3618C43.1642 22.9966 43.4787 22.5096 43.7019 21.9008C43.9454 21.2718 44.0671 20.6022 44.0671 19.892C44.0671 18.431 43.6207 17.315 42.7279 16.5439C42.3829 16.2599 41.9771 16.0569 41.5104 15.9352C41.064 15.8135 40.5161 15.7526 39.8668 15.7526H35.6361V24.3054Z" fill="white"/>
</svg>
