<svg width="805" height="394" viewBox="0 0 805 394" fill="none" xmlns="http://www.w3.org/2000/svg">
<path d="M334.499 283.771C228.25 283.771 141.987 300.524 141.987 321.245V354.898C141.987 375.618 228.103 392.371 334.499 392.371C440.749 392.371 527.012 375.618 527.012 354.898V321.245C526.865 300.671 440.749 283.771 334.499 283.771Z" fill="url(#paint0_linear)"/>
<path d="M334.499 358.864C440.821 358.864 527.012 342.086 527.012 321.39C527.012 300.694 440.821 283.917 334.499 283.917C228.178 283.917 141.987 300.694 141.987 321.39C141.987 342.086 228.178 358.864 334.499 358.864Z" fill="#4277D5"/>
<g opacity="0.78">
<path opacity="0.56" d="M405.634 338.806C338.475 339.246 283.366 331.752 282.631 322.2C281.897 312.5 335.683 304.418 402.841 303.977C470 303.536 525.109 311.031 525.843 320.583C526.725 330.135 472.792 338.365 405.634 338.806Z" fill="url(#paint1_radial)"/>
<path opacity="0.4" d="M686.218 403.111C651.094 403.62 622.272 394.966 621.888 383.937C621.503 372.739 649.633 363.406 684.757 362.897C719.882 362.388 748.703 371.042 749.088 382.071C749.549 393.1 721.342 402.602 686.218 403.111Z" fill="url(#paint2_radial)"/>
</g>
<g opacity="0.78">
<path opacity="0.56" d="M266.931 330.352C225.048 330.579 190.807 326.722 190.367 321.807C189.926 316.816 223.432 312.657 265.314 312.43C307.196 312.203 341.437 316.06 341.878 320.975C342.466 325.966 308.813 330.125 266.931 330.352Z" fill="url(#paint3_radial)"/>
</g>
<path d="M648.985 391.049C694.354 391.049 731.134 354.27 731.134 308.901C731.134 263.531 694.354 226.752 648.985 226.752C603.616 226.752 566.837 263.531 566.837 308.901C566.837 354.27 603.616 391.049 648.985 391.049Z" fill="url(#paint4_radial)"/>
<path d="M783.305 246.738L499.533 214.702L499.239 179.874L783.158 212.057L783.305 246.738Z" fill="#6A5A6D"/>
<path d="M783.159 212.057L499.24 179.874L520.843 175.612L804.761 207.649L783.159 212.057Z" fill="#705E71"/>
<path d="M804.76 207.649L804.907 242.331L783.304 246.739L783.157 212.058L804.76 207.649Z" fill="#564759"/>
<path d="M548.909 429.406L549.644 277.013L478.37 399.868L548.909 429.406Z" fill="url(#paint5_linear)"/>
<path d="M548.907 429.406L549.642 277.013L619.593 400.603L548.907 429.406Z" fill="#39AAD3"/>
<path d="M458.825 283.772L336.705 325.801L287.181 182.225L409.301 140.049L458.825 283.772Z" fill="url(#paint6_linear)"/>
<path d="M389.462 136.082L344.934 151.365L300.26 166.796L287.181 182.226L348.167 161.211L409.301 140.05L389.462 136.082Z" fill="#B7395D"/>
<path d="M456.769 325.801C467.888 325.801 476.902 316.787 476.902 305.668C476.902 294.548 467.888 285.535 456.769 285.535C445.65 285.535 436.636 294.548 436.636 305.668C436.636 316.787 445.65 325.801 456.769 325.801Z" fill="url(#paint7_radial)"/>
<path d="M600.784 136.371C600.784 137.666 600.675 138.752 600.675 139.339L600.343 143.207C600.196 145.043 599.923 146.429 599.787 148.048C599.776 148.173 599.766 148.298 599.755 148.425C599.755 148.645 599.719 148.866 599.682 149.086C599.645 149.307 599.608 149.527 599.608 149.747C599.535 150.409 599.461 151.033 599.388 151.658C599.314 152.282 599.241 152.907 599.168 153.568C599.021 153.862 599.021 154.009 599.021 154.303C598.947 154.597 598.91 154.891 598.874 155.185C598.837 155.479 598.8 155.773 598.727 156.067C598.727 156.507 598.727 156.948 598.58 157.389C598.286 158.858 597.992 160.181 597.698 161.503L595.347 172.085C595.64 170.617 595.934 169.295 596.228 167.974L596.228 167.97C596.228 167.75 596.265 167.529 596.302 167.309C596.339 167.088 596.375 166.868 596.375 166.647C596.449 166.206 596.522 165.802 596.596 165.398C596.669 164.994 596.743 164.59 596.816 164.149C596.89 163.488 596.963 162.863 597.037 162.239C597.11 161.614 597.184 160.99 597.257 160.328C597.257 160.108 597.294 159.887 597.331 159.667C597.367 159.446 597.404 159.226 597.404 159.006C597.551 157.242 597.698 155.478 597.698 153.862V147.102C597.698 146.514 597.661 145.963 597.625 145.412C597.588 144.861 597.551 144.31 597.551 143.722C597.551 143.428 597.514 143.134 597.478 142.84C597.441 142.547 597.404 142.253 597.404 141.959C597.331 141.297 597.257 140.673 597.184 140.048C597.11 139.424 597.037 138.799 596.963 138.138C596.963 138.006 596.934 137.844 596.901 137.666C596.861 137.448 596.816 137.205 596.816 136.962C596.669 135.346 596.375 133.582 596.081 131.966C596.081 131.723 596.037 131.525 595.997 131.347C595.964 131.201 595.935 131.069 595.935 130.937L595.053 126.528C594.906 125.941 594.759 125.353 594.612 124.912C594.374 123.721 594.039 122.627 593.686 121.473C593.604 121.203 593.52 120.929 593.436 120.65C593.363 120.503 593.326 120.32 593.289 120.136C593.253 119.952 593.216 119.768 593.142 119.621C593.142 119.328 592.995 118.887 592.848 118.593C592.701 118.152 592.555 117.674 592.408 117.197C592.261 116.719 592.114 116.241 591.967 115.801L591.526 114.478C591.085 113.596 590.791 112.862 590.497 111.98C590.203 111.539 590.056 111.098 589.909 110.657C589.615 109.628 589.175 108.747 588.734 107.865L588.293 106.983C588.219 106.763 588.109 106.579 587.999 106.395C587.889 106.212 587.778 106.028 587.705 105.808C587.503 105.404 587.319 105.018 587.14 104.643C586.797 103.926 586.475 103.25 586.088 102.575C585.941 102.354 585.795 102.097 585.648 101.84C585.501 101.583 585.354 101.325 585.207 101.105C584.766 100.076 584.325 99.1946 583.737 98.3129C583.59 98.019 583.443 97.7618 583.296 97.5046C583.149 97.2475 583.002 96.9903 582.855 96.6964C582.415 95.8146 581.827 94.9329 581.239 94.0512C580.919 93.7315 580.677 93.3345 580.456 92.9723C580.372 92.8351 580.291 92.7028 580.21 92.5816C580.046 92.3346 579.881 92.0761 579.713 91.8125C579.282 91.1351 578.829 90.4242 578.3 89.7894C578.153 89.569 578.006 89.3853 577.859 89.2016C577.712 89.0179 577.565 88.8342 577.418 88.6138C577.133 88.1379 576.785 87.7237 576.456 87.3311C576.277 87.1176 576.104 86.9105 575.949 86.7034C575.728 86.4095 575.508 86.1523 575.287 85.8951C575.067 85.6379 574.846 85.3808 574.626 85.0869C574.405 84.7929 574.148 84.499 573.891 84.2051C573.634 83.9112 573.377 83.6173 573.156 83.3234C572.936 83.0295 572.715 82.7723 572.495 82.5151C572.275 82.2579 572.054 82.0008 571.834 81.7069C571.54 81.413 571.283 81.119 571.025 80.8251C570.768 80.5312 570.511 80.2373 570.217 79.9434C569.819 79.6444 569.488 79.2779 569.178 78.9354C569.031 78.7728 568.89 78.6157 568.748 78.4738C568.16 78.033 567.572 77.4452 566.984 76.8573L565.515 75.3878C565.221 75.0939 564.927 74.8367 564.633 74.5795C564.339 74.3223 564.045 74.0652 563.751 73.7712C563.31 73.3304 562.869 72.8895 562.282 72.4487C561.988 72.1547 561.657 71.8976 561.326 71.6404C560.996 71.3832 560.665 71.126 560.371 70.8321C559.93 70.3913 559.489 69.9504 558.902 69.5095C558.534 69.2156 558.167 68.9585 557.799 68.7013C557.432 68.4441 557.065 68.1869 556.697 67.893C556.256 67.4521 555.669 67.0113 555.228 66.7174C554.86 66.4235 554.456 66.1663 554.052 65.9091C553.648 65.6519 553.244 65.3948 552.876 65.1009L551.554 64.2191L549.35 62.8965C549.056 62.7496 548.798 62.5659 548.541 62.3822C548.284 62.1985 548.027 62.0148 547.733 61.8678C547.292 61.6474 546.888 61.427 546.484 61.2065C546.08 60.9861 545.676 60.7657 545.235 60.5452C544.941 60.3983 544.684 60.2513 544.426 60.1044C544.169 59.9574 543.912 59.8104 543.618 59.6635C543.177 59.4431 542.7 59.2226 542.222 59.0022C541.745 58.7818 541.267 58.5613 540.826 58.3409C540.618 58.2368 540.428 58.1511 540.25 58.0708C539.926 57.9244 539.641 57.7959 539.356 57.6061C538.034 56.8713 536.564 56.2835 535.095 55.6957C534.333 55.3572 533.523 55.0674 532.692 54.7703C532.08 54.5514 531.456 54.3285 530.833 54.0792C530.686 54.0057 530.539 53.969 530.392 53.9322C530.245 53.8955 530.098 53.8587 529.951 53.7853C528.482 53.1974 527.012 52.7566 525.543 52.3157C525.396 52.2422 525.212 52.2055 525.028 52.1687C524.845 52.132 524.661 52.0953 524.514 52.0218C523.191 51.5809 522.016 51.287 520.84 50.9931C520.693 50.9196 520.509 50.8829 520.326 50.8461C520.142 50.8094 519.958 50.7727 519.811 50.6992C519.517 50.6257 519.187 50.5522 518.856 50.4788C518.525 50.4053 518.195 50.3318 517.901 50.2583C517.313 50.1114 516.689 50.0011 516.064 49.8909C515.439 49.7807 514.815 49.6705 514.227 49.5235C513.599 49.5235 513.079 49.4163 512.483 49.2935C512.381 49.2725 512.277 49.2511 512.17 49.2296C510.994 48.9357 509.818 48.7888 508.643 48.6418C508.275 48.5683 507.908 48.5316 507.541 48.4949C507.173 48.4581 506.806 48.4214 506.438 48.3479C505.924 48.2744 505.41 48.2377 504.895 48.2009C504.381 48.1642 503.867 48.1275 503.352 48.054C502.985 48.054 502.618 48.0172 502.25 47.9805C501.883 47.9438 501.515 47.907 501.148 47.907C500.119 47.7601 498.944 47.7601 497.915 47.7601H490.567C489.221 47.7601 487.998 47.8834 486.672 48.0171C486.551 48.0293 486.429 48.0416 486.305 48.054C486.012 48.2009 485.571 48.2009 485.277 48.2009C484.395 48.3479 483.513 48.4581 482.632 48.5683C481.75 48.6786 480.868 48.7888 479.986 48.9357C479.692 49.0092 479.435 49.0459 479.178 49.0827C478.921 49.1194 478.664 49.1562 478.37 49.2296C477.782 49.3766 477.157 49.4868 476.533 49.597C475.908 49.7072 475.284 49.8175 474.696 49.9644L470.728 50.8461C470.655 50.8461 470.544 50.8829 470.434 50.9196C470.324 50.9564 470.214 50.9931 470.14 50.9931C469.479 51.1401 468.854 51.3237 468.23 51.5074C467.605 51.6911 466.981 51.8748 466.319 52.0218C466.172 52.0953 466.026 52.132 465.879 52.1687C465.732 52.2055 465.585 52.2422 465.438 52.3157L461.47 53.6383C461.249 53.7118 461.066 53.7853 460.882 53.8587C460.698 53.9322 460.515 54.0057 460.294 54.0792C459.78 54.2996 459.266 54.4833 458.751 54.667C458.237 54.8507 457.723 55.0344 457.208 55.2548C456.988 55.3283 456.767 55.4385 456.547 55.5487C456.326 55.6589 456.106 55.7692 455.886 55.8426C455.004 56.2835 453.975 56.7244 452.946 57.1652C452.726 57.2387 452.542 57.3122 452.359 57.3857C452.175 57.4592 451.991 57.5326 451.771 57.6061C450.448 58.1939 449.126 58.7818 447.803 59.5165C447.362 59.8104 447.068 59.9574 446.774 60.1043L443.688 61.8678C443.468 62.0148 443.211 62.1617 442.953 62.3087C442.696 62.4557 442.439 62.6026 442.219 62.7496C441.778 63.0435 441.374 63.3006 440.97 63.5578C440.565 63.815 440.161 64.0722 439.72 64.3661C439.5 64.513 439.243 64.6967 438.986 64.8804C438.729 65.0641 438.471 65.2478 438.251 65.3948C437.884 65.6887 437.479 65.9459 437.075 66.203C436.671 66.4602 436.267 66.7174 435.9 67.0113C435.679 67.2317 435.422 67.4154 435.165 67.5991C434.908 67.7828 434.65 67.9665 434.43 68.1869L432.226 69.9504C432.005 70.1708 431.748 70.3545 431.491 70.5382C431.234 70.7219 430.977 70.9056 430.756 71.1261C430.389 71.42 430.021 71.7506 429.654 72.0813C429.287 72.4119 428.919 72.7426 428.552 73.0365C428.331 73.2569 428.111 73.4406 427.891 73.6243C427.67 73.808 427.45 73.9917 427.229 74.2121C426.862 74.5795 426.458 74.9469 426.054 75.3143C425.649 75.6817 425.245 76.0491 424.878 76.4165C424.731 76.5634 424.547 76.7104 424.364 76.8573C424.18 77.0043 423.996 77.1512 423.849 77.2982C423.335 77.886 422.784 78.4371 422.233 78.9882C421.682 79.5393 421.131 80.0904 420.616 80.6782C420.543 80.7517 420.469 80.8619 420.396 80.9721C420.322 81.0823 420.249 81.1925 420.175 81.266C419.294 82.1476 418.412 83.176 417.531 84.2045C417.384 84.425 417.199 84.646 417.016 84.8664C416.832 85.0869 416.648 85.3073 416.501 85.5277C416.297 85.7838 416.074 86.0398 415.846 86.302C415.419 86.7924 414.974 87.3045 414.591 87.879C414.371 88.0995 414.187 88.3566 414.003 88.6138C413.819 88.871 413.636 89.1281 413.415 89.3486C413.121 89.716 412.828 90.1201 412.534 90.5242C412.24 90.9283 411.946 91.3325 411.652 91.6999C411.505 91.9938 411.321 92.251 411.138 92.5081C410.954 92.7653 410.77 93.0225 410.623 93.3164C410.329 93.7573 410.072 94.1614 409.815 94.5655C409.558 94.9696 409.301 95.3738 409.007 95.8146C408.937 95.9187 408.86 96.0309 408.778 96.1494C408.513 96.5329 408.203 96.982 407.978 97.4311C407.758 97.872 407.5 98.3129 407.243 98.7537C406.986 99.1946 406.729 99.6355 406.508 100.076C406.361 100.37 406.215 100.627 406.068 100.885C405.921 101.142 405.774 101.399 405.627 101.693C405.406 102.207 405.149 102.685 404.892 103.162C404.635 103.64 404.378 104.118 404.157 104.632C404.053 104.84 403.967 105.03 403.887 105.208C403.741 105.532 403.612 105.817 403.422 106.102C403.136 106.675 402.901 107.087 402.686 107.465C402.35 108.055 402.064 108.559 401.705 109.455L403.716 100.076C404.084 99.3416 404.414 98.6068 404.745 97.872C405.076 97.1372 405.406 96.4025 405.774 95.6677C405.878 95.4594 405.963 95.2696 406.044 95.0918C406.19 94.7675 406.319 94.4828 406.508 94.1981C406.949 93.1694 407.39 92.2877 407.978 91.259C408.125 90.9651 408.272 90.7079 408.419 90.4507C408.566 90.1936 408.713 89.9364 408.86 89.6425C409.08 89.2016 409.337 88.7607 409.595 88.3199C409.852 87.879 410.109 87.4381 410.329 86.9973C410.399 86.8932 410.476 86.781 410.558 86.6625C410.823 86.2789 411.133 85.8298 411.358 85.3808C411.652 85.0134 411.909 84.6092 412.166 84.2051C412.423 83.801 412.681 83.3969 412.974 83.0295C413.195 82.7356 413.379 82.4784 413.562 82.2212C413.746 81.964 413.93 81.7069 414.15 81.413C414.444 81.0456 414.738 80.6414 415.032 80.2373C415.326 79.8332 415.62 79.4291 415.914 79.0617C416.134 78.8412 416.318 78.5841 416.501 78.3269C416.685 78.0697 416.869 77.8125 417.089 77.5921C417.383 77.2247 417.714 76.8206 418.044 76.4165C418.375 76.0123 418.706 75.6082 419 75.2408C419.147 75.0204 419.33 74.7999 419.514 74.5795C419.698 74.3591 419.881 74.1386 420.028 73.9182C420.469 73.4039 420.91 72.9263 421.351 72.4487C421.792 71.9711 422.233 71.4934 422.674 70.9791C422.747 70.9056 422.821 70.7954 422.894 70.6852C422.967 70.575 423.041 70.4648 423.114 70.3913C424.143 69.2156 425.172 68.04 426.347 67.0113C426.494 66.8643 426.678 66.7174 426.862 66.5704C427.045 66.4235 427.229 66.2765 427.376 66.1296C428.111 65.3948 428.846 64.66 429.727 63.9252C429.948 63.7048 430.168 63.5211 430.389 63.3374C430.609 63.1537 430.83 62.97 431.05 62.7496C431.785 62.0148 432.52 61.427 433.254 60.8392C433.475 60.6188 433.732 60.435 433.989 60.2513C434.246 60.0676 434.503 59.8839 434.724 59.6635L436.928 57.9C437.369 57.4592 437.81 57.0183 438.398 56.7244C438.765 56.4305 439.169 56.1733 439.573 55.9161C439.978 55.6589 440.382 55.4018 440.749 55.1079C441.043 54.9609 441.3 54.7772 441.557 54.5935C441.815 54.4098 442.072 54.2261 442.366 54.0792C442.623 53.9077 442.868 53.7361 443.107 53.5683C443.689 53.1608 444.239 52.7749 444.864 52.4627C445.084 52.3157 445.342 52.1687 445.599 52.0218C445.856 51.8748 446.113 51.7279 446.333 51.5809L449.42 49.8175C449.86 49.5236 450.154 49.3766 450.448 49.2297L450.595 49.2296C451.771 48.4949 453.093 47.907 454.416 47.3192C454.636 47.2457 454.82 47.1722 455.004 47.0988C455.188 47.0253 455.371 46.9518 455.592 46.8783C456.473 46.4375 457.502 45.9966 458.531 45.5557C458.751 45.4823 458.972 45.372 459.192 45.2618C459.413 45.1516 459.633 45.0414 459.853 44.9679C460.368 44.7475 460.882 44.5638 461.396 44.3801C461.911 44.1964 462.425 44.0127 462.939 43.7923C463.16 43.7188 463.344 43.6453 463.527 43.5718C463.711 43.4984 463.895 43.4249 464.115 43.3514C464.189 43.3514 464.262 43.3147 464.336 43.2779C464.409 43.2412 464.483 43.2044 464.556 43.2044C465.732 42.7636 466.907 42.3227 468.083 42.0288C468.23 41.9553 468.377 41.9186 468.524 41.8818C468.671 41.8451 468.818 41.8084 468.965 41.7349C469.626 41.5879 470.251 41.4042 470.875 41.2205C471.5 41.0368 472.124 40.8531 472.786 40.7062C472.859 40.7062 472.969 40.6694 473.079 40.6327C473.19 40.596 473.3 40.5592 473.373 40.5592C473.961 40.4123 474.512 40.3021 475.063 40.1918C475.614 40.0816 476.165 39.9714 476.753 39.8245C476.9 39.6775 477.194 39.6775 477.341 39.6775C478.517 39.3836 479.839 39.0897 481.015 38.9427C481.309 38.8692 481.566 38.8325 481.823 38.7958C482.08 38.759 482.338 38.7223 482.632 38.6488C484.395 38.3549 486.158 38.061 487.922 37.914H488.951C489.074 37.9017 489.196 37.8894 489.318 37.8771C490.643 37.7434 491.866 37.6201 493.212 37.6201H500.56C501.075 37.6201 501.626 37.6569 502.177 37.6936C502.728 37.7303 503.279 37.7671 503.793 37.7671C504.161 37.7671 504.528 37.8038 504.895 37.8406C505.263 37.8773 505.63 37.914 505.997 37.914C506.512 37.9875 507.026 38.0243 507.541 38.061C508.055 38.0977 508.569 38.1345 509.084 38.2079C509.377 38.3549 509.818 38.3549 510.112 38.3549C510.333 38.3549 510.516 38.3916 510.7 38.4284C510.884 38.4651 511.067 38.5018 511.288 38.5018C512.464 38.7958 513.639 38.9427 514.815 39.0897C515.442 39.0897 515.963 39.1969 516.559 39.3197C516.661 39.3407 516.765 39.3622 516.872 39.3836C518.048 39.5305 519.371 39.8245 520.546 40.1184C520.816 40.1858 521.054 40.2223 521.276 40.2562C521.538 40.2962 521.777 40.3327 522.016 40.4123C522.089 40.4123 522.199 40.449 522.31 40.4858C522.42 40.5225 522.53 40.5592 522.604 40.5592C522.75 40.6327 522.934 40.6695 523.118 40.7062C523.302 40.7429 523.485 40.7797 523.632 40.8532C524.381 41.0195 525.082 41.233 525.763 41.4402C526.286 41.5991 526.796 41.7543 527.306 41.8818C527.453 41.9553 527.637 41.9921 527.82 42.0288C528.004 42.0655 528.188 42.1023 528.335 42.1757C529.804 42.6166 531.274 43.0575 532.743 43.6453C532.89 43.7188 533.037 43.7555 533.184 43.7923C533.331 43.829 533.478 43.8657 533.625 43.9392C534.36 44.0862 535.095 44.3801 535.83 44.674L538.034 45.5557C539.503 46.1436 540.826 46.7314 542.296 47.4662C542.516 47.6131 542.773 47.7233 543.03 47.8336C543.288 47.9438 543.545 48.054 543.765 48.2009L548.174 50.4053C548.541 50.6257 548.945 50.8461 549.35 51.0666C549.754 51.287 550.158 51.5074 550.525 51.7279C550.819 51.8748 551.113 52.0585 551.407 52.2422C551.701 52.4259 551.995 52.6096 552.289 52.7566L554.493 54.0792C555.081 54.52 555.522 54.814 555.963 55.1079C556.33 55.4018 556.734 55.6589 557.138 55.9161C557.542 56.1733 557.946 56.4305 558.314 56.7244C558.608 56.9448 558.865 57.1285 559.122 57.3122C559.379 57.4959 559.636 57.6796 559.93 57.9C560.298 58.1939 560.628 58.4511 560.959 58.7083C561.29 58.9655 561.62 59.2226 561.988 59.5165C562.282 59.737 562.539 59.9574 562.796 60.1778C563.053 60.3983 563.31 60.6187 563.604 60.8391C563.898 61.1331 564.229 61.3902 564.559 61.6474C564.89 61.9046 565.221 62.1617 565.515 62.4557C565.735 62.6761 565.992 62.8965 566.249 63.117C566.507 63.3374 566.764 63.5578 566.984 63.7783C567.719 64.2191 568.307 64.8069 568.895 65.3948L572.128 68.6278C572.526 68.9268 572.857 69.2934 573.167 69.6358C573.313 69.7984 573.455 69.9555 573.597 70.0974C573.891 70.3913 574.148 70.6852 574.405 70.9791C574.663 71.273 574.92 71.5669 575.214 71.8608C575.434 72.1547 575.655 72.4119 575.875 72.6691C576.095 72.9263 576.316 73.1834 576.536 73.4773C576.757 73.7713 577.014 74.0652 577.271 74.3591C577.528 74.653 577.785 74.9469 578.006 75.2408C578.447 75.6817 578.888 76.2695 579.329 76.8573C579.916 77.592 580.357 78.1797 580.798 78.7674C580.798 78.8409 580.835 78.878 580.872 78.9147C580.908 78.9514 580.945 78.9882 580.945 79.0617C581.092 79.2086 581.202 79.3556 581.312 79.5025C581.423 79.6495 581.533 79.7964 581.68 79.9434C581.974 80.3843 582.304 80.8619 582.635 81.3395C582.966 81.8171 583.296 82.2947 583.59 82.7356C583.91 83.0552 584.152 83.4522 584.373 83.8143C584.457 83.9516 584.538 84.0839 584.619 84.2051C584.913 84.646 585.17 85.0869 585.427 85.5277C585.684 85.9686 585.942 86.4095 586.235 86.8503C586.382 87.1442 586.529 87.4014 586.676 87.6586C586.823 87.9157 586.97 88.1729 587.117 88.4668C587.386 89.0945 587.71 89.6674 588.022 90.219C588.221 90.5715 588.415 90.9152 588.587 91.259C588.734 91.4794 588.881 91.7366 589.028 91.9938C589.175 92.2509 589.322 92.5081 589.468 92.7286C589.762 93.2429 590.02 93.794 590.277 94.3451C590.534 94.8962 590.791 95.4472 591.085 95.9616L591.526 96.8433C591.61 96.9278 591.646 96.9637 591.662 97.0069C591.671 97.0349 591.673 97.0658 591.673 97.1149C591.673 97.122 591.673 97.1294 591.673 97.1372L592.114 98.019C592.334 98.4598 592.518 98.9374 592.701 99.415C592.885 99.8927 593.069 100.37 593.289 100.811C593.583 101.252 593.73 101.693 593.877 102.134C594.318 103.015 594.612 103.75 594.906 104.632L595.347 105.955C595.494 106.395 595.641 106.873 595.788 107.351C595.935 107.828 596.081 108.306 596.228 108.747C596.228 109.041 596.375 109.482 596.522 109.775C596.669 109.922 596.669 109.922 596.669 110.069C596.669 110.363 596.669 110.51 596.816 110.804C596.9 111.083 596.984 111.356 597.066 111.627C597.419 112.781 597.754 113.875 597.992 115.066C598.065 115.286 598.139 115.543 598.212 115.801C598.286 116.058 598.359 116.315 598.433 116.535L599.314 120.944C599.314 121.091 599.351 121.201 599.388 121.311C599.425 121.422 599.461 121.532 599.461 121.679V121.973C599.755 123.589 600.049 125.353 600.196 126.969C600.196 127.101 600.226 127.263 600.259 127.441C600.299 127.66 600.343 127.902 600.343 128.145C600.417 128.806 600.49 129.431 600.564 130.055C600.637 130.68 600.65 131.304 600.723 131.966L600.784 133.729C600.784 134.317 600.784 135.25 600.784 136.371Z" fill="url(#paint8_linear)"/>
<path d="M535.537 55.2554C587.706 77.0049 612.542 136.522 590.792 188.25L401.66 109.482C423.41 57.7537 483.221 33.506 535.537 55.2554Z" fill="#42BDEB"/>
<path d="M282.328 280.833C282.328 280.686 282.328 280.686 282.328 280.539C282.328 280.392 282.328 280.245 282.328 280.245C282.328 279.217 282.181 278.335 282.034 277.453C281.887 276.277 281.74 275.102 281.447 274.073V273.926C281.3 273.191 281.153 272.457 280.859 271.722C280.859 271.575 280.712 271.281 280.712 271.134C280.565 270.546 280.418 270.105 280.271 269.517C280.271 269.37 280.271 269.224 280.124 269.224C280.124 269.077 279.977 268.93 279.977 268.783C279.83 268.342 279.683 267.901 279.536 267.46C279.389 267.166 279.389 267.019 279.242 266.725C279.095 266.284 278.801 265.844 278.654 265.403C278.507 265.256 278.507 264.962 278.36 264.815C278.067 264.227 277.773 263.639 277.479 263.051C277.479 263.051 277.479 262.904 277.332 262.904C277.038 262.317 276.597 261.729 276.303 261.141C276.156 260.994 276.009 260.7 276.009 260.553C275.715 260.112 275.568 259.818 275.274 259.377C275.127 259.231 274.98 258.937 274.833 258.79C274.54 258.496 274.393 258.055 274.099 257.761C273.952 257.614 273.805 257.32 273.658 257.173C273.364 256.879 273.07 256.438 272.776 256.144C272.629 255.997 272.482 255.704 272.335 255.557C272.041 255.116 271.747 254.822 271.307 254.528C271.16 254.381 271.16 254.234 271.013 254.234C270.572 253.646 269.984 253.205 269.396 252.764C269.249 252.617 269.102 252.471 268.955 252.324C268.514 251.883 268.074 251.589 267.633 251.295C267.486 251.148 267.486 251.148 267.339 251.001L267.192 250.854C266.31 250.119 265.575 249.531 264.694 248.944L264.547 248.797C264.4 248.797 264.4 248.65 264.253 248.65C263.518 248.209 262.636 247.621 261.901 247.18C261.901 247.18 261.901 247.18 261.754 247.18C261.607 247.18 261.607 247.033 261.46 247.033C260.873 246.739 260.138 246.298 259.403 246.005C259.256 246.005 259.256 245.858 259.109 245.858C259.109 245.858 258.962 245.858 258.962 245.711C258.227 245.417 257.493 245.123 256.758 244.829C256.758 244.829 256.758 244.829 256.611 244.829C256.464 244.829 256.464 244.829 256.317 244.682C255.729 244.388 255.141 244.241 254.554 244.094C254.407 244.094 254.407 243.947 254.26 243.947C254.113 243.947 253.966 243.947 253.966 243.8C253.378 243.653 252.79 243.506 252.202 243.359C252.055 243.359 251.908 243.359 251.908 243.212H251.761C251.027 243.065 250.292 242.918 249.557 242.771H249.41C249.263 242.771 249.116 242.771 248.969 242.771C248.381 242.624 247.794 242.625 247.059 242.625C246.912 242.625 246.765 242.625 246.618 242.625C246.324 242.625 246.03 242.625 245.883 242.625C245.148 242.625 244.561 242.625 243.826 242.625C243.679 242.625 243.385 242.625 243.238 242.625C242.797 242.625 242.356 242.625 241.768 242.625C241.475 242.625 241.181 242.625 240.74 242.625C240.593 242.625 240.299 242.624 240.152 242.771C239.564 242.771 238.976 242.918 238.388 243.065C238.095 243.065 237.801 243.065 237.507 243.212C237.36 243.212 237.066 243.359 236.919 243.359C236.772 243.359 236.478 243.506 236.331 243.506C235.449 243.653 234.568 243.947 233.686 244.241L206.499 252.618C207.381 252.324 208.262 252.177 209.144 251.883C209.291 251.883 209.585 251.736 209.732 251.736C210.173 251.589 210.761 251.589 211.349 251.442C211.936 251.295 212.524 251.295 213.112 251.148C213.7 251.148 214.141 251.001 214.729 251.001C215.169 251.001 215.61 251.001 216.198 251.001C217.08 251.001 217.962 251.001 218.843 251.001C219.284 251.001 219.578 251.001 220.019 251.148C220.607 251.148 221.342 251.295 221.929 251.295C222.076 251.295 222.223 251.295 222.517 251.442C223.252 251.589 223.987 251.736 224.722 251.883C224.868 251.883 225.015 252.03 225.162 252.03C225.75 252.177 226.338 252.324 226.926 252.471C227.073 252.471 227.367 252.618 227.514 252.618C228.102 252.764 228.689 253.058 229.277 253.205C229.424 253.205 229.571 253.352 229.718 253.352C230.453 253.646 231.188 253.94 231.922 254.234C232.069 254.381 232.216 254.381 232.51 254.528C233.245 254.822 233.833 255.116 234.421 255.557C234.568 255.557 234.568 255.704 234.715 255.704C235.449 256.144 236.331 256.585 237.066 257.173C237.213 257.32 237.36 257.32 237.507 257.467C238.388 258.055 239.27 258.643 240.005 259.377C240.152 259.524 240.299 259.671 240.446 259.818C240.887 260.112 241.328 260.553 241.768 260.847C241.915 260.994 242.062 261.141 242.209 261.288C242.797 261.729 243.238 262.317 243.826 262.757C243.973 262.904 244.12 263.051 244.267 263.198C244.561 263.492 245.001 263.933 245.295 264.227C245.442 264.374 245.589 264.668 245.736 264.815C246.03 265.109 246.324 265.55 246.618 265.844C246.765 265.99 246.912 266.284 247.059 266.431C247.353 266.725 247.647 267.166 247.794 267.46C247.941 267.607 248.088 267.901 248.234 268.048C248.528 268.489 248.822 268.783 248.969 269.224C249.116 269.37 249.263 269.664 249.263 269.811C249.557 270.399 249.998 270.987 250.292 271.575V271.722C250.586 272.31 250.88 272.897 251.174 273.485C251.321 273.632 251.321 273.926 251.468 274.073C251.614 274.514 251.908 274.955 252.055 275.396C252.202 275.69 252.202 275.837 252.349 276.13C252.496 276.571 252.643 277.012 252.79 277.306C252.937 277.6 252.937 277.747 253.084 278.041C253.231 278.629 253.378 279.07 253.525 279.657C253.525 279.804 253.672 280.098 253.672 280.245C253.819 280.98 254.113 281.715 254.26 282.45V282.596C254.554 283.772 254.701 284.948 254.847 285.976C254.994 286.858 254.994 287.887 255.141 288.769C255.141 288.916 255.141 289.21 255.141 289.356C255.141 290.238 255.141 290.973 255.141 291.855C255.141 292.883 254.994 293.912 254.994 294.941C254.994 295.235 254.994 295.382 254.847 295.676C254.701 296.41 254.701 297.145 254.554 297.88C254.554 298.174 254.407 298.615 254.407 298.909C254.26 299.496 254.113 300.084 253.966 300.672C253.819 301.113 253.819 301.407 253.672 301.701C253.525 302.289 253.378 302.876 253.231 303.317C253.084 303.758 252.937 304.052 252.79 304.493C252.643 304.934 252.349 305.522 252.202 305.962C252.055 306.403 251.908 306.844 251.761 307.138C251.614 307.579 251.321 308.02 251.174 308.461C250.88 308.902 250.733 309.342 250.439 309.93C250.292 310.371 249.998 310.665 249.851 311.106C249.557 311.694 249.116 312.282 248.822 312.869C248.528 313.31 248.234 313.751 248.088 314.045C247.941 314.192 247.794 314.486 247.647 314.633C247.206 315.221 246.765 315.809 246.324 316.396C246.177 316.543 246.177 316.543 246.03 316.69C245.442 317.425 244.855 318.013 244.267 318.601C244.12 318.748 243.973 318.895 243.826 319.042C243.385 319.482 242.797 319.923 242.356 320.364C242.062 320.511 241.915 320.805 241.621 320.952C241.181 321.246 240.74 321.687 240.299 321.981C240.005 322.128 239.711 322.422 239.417 322.568C238.976 322.862 238.535 323.156 238.095 323.45C237.801 323.597 237.507 323.891 237.213 324.038C236.772 324.332 236.184 324.626 235.743 324.773C235.449 324.92 235.155 325.067 234.861 325.214C234.274 325.508 233.833 325.655 233.245 325.948C232.951 326.095 232.657 326.242 232.51 326.242C231.628 326.536 230.894 326.83 230.012 327.124L257.199 318.748C258.081 318.454 258.962 318.16 259.697 317.866C259.991 317.719 260.285 317.572 260.432 317.572C261.02 317.278 261.607 317.131 262.048 316.837C262.342 316.69 262.636 316.543 262.93 316.396C263.371 316.102 263.959 315.809 264.4 315.662C264.694 315.515 264.987 315.368 265.281 315.074C265.722 314.78 266.163 314.486 266.604 314.192C266.898 314.045 267.192 313.751 267.486 313.604C267.927 313.31 268.367 312.869 268.808 312.575C269.102 312.429 269.249 312.135 269.543 311.988C269.984 311.547 270.572 311.106 271.013 310.665C271.16 310.518 271.307 310.371 271.454 310.224C272.041 309.636 272.629 309.049 273.217 308.314C273.217 308.314 273.217 308.314 273.364 308.167C273.511 308.02 273.511 308.02 273.658 307.873C274.099 307.285 274.54 306.697 274.98 306.109C275.127 305.962 275.274 305.669 275.421 305.522C275.568 305.375 275.715 305.081 275.862 304.934C276.009 304.787 276.156 304.493 276.156 304.346C276.597 303.758 276.891 303.17 277.185 302.582C277.332 302.436 277.479 302.142 277.626 301.995C277.773 301.848 277.773 301.701 277.92 301.554C278.213 301.113 278.36 300.672 278.654 300.084C278.801 299.79 278.948 299.496 279.095 299.349C279.242 299.202 279.242 299.056 279.242 298.909C279.389 298.468 279.536 298.027 279.683 297.733C279.83 297.439 279.977 297.145 279.977 296.851C280.124 296.704 280.124 296.41 280.124 296.263C280.271 295.823 280.418 295.529 280.565 295.088C280.712 294.794 280.712 294.5 280.859 294.353C281.006 294.059 281.006 293.765 281.153 293.471C281.3 293.177 281.3 292.736 281.447 292.443C281.447 292.296 281.593 292.002 281.593 291.855C281.74 291.414 281.74 290.973 281.887 290.679C281.887 290.385 282.034 289.944 282.034 289.65C282.034 289.503 282.034 289.356 282.034 289.356C282.181 288.769 282.181 288.181 282.328 287.446C282.328 287.152 282.328 287.005 282.475 286.711V286.564C282.622 285.683 282.622 284.654 282.622 283.772V283.625C282.328 282.45 282.328 281.715 282.328 280.833Z" fill="url(#paint9_linear)"/>
<path d="M218.55 250.413C239.124 251.589 255.436 269.958 255.142 291.708C254.848 313.31 237.801 329.916 217.228 328.887C196.654 327.712 180.195 309.342 180.636 287.593C181.076 265.99 197.976 249.384 218.55 250.413Z" fill="url(#paint10_linear)"/>
<path d="M728.783 419.265C751.427 419.265 769.784 400.908 769.784 378.264C769.784 355.62 751.427 337.263 728.783 337.263C706.139 337.263 687.782 355.62 687.782 378.264C687.782 400.908 706.139 419.265 728.783 419.265Z" fill="url(#paint11_radial)"/>
<path d="M492.918 17.0469C492.918 17.0469 492.918 16.8999 492.918 17.0469C492.771 16.8999 492.771 16.8999 492.771 16.753L492.624 16.606L492.477 16.4591C492.477 16.4591 492.477 16.4591 492.33 16.3121C492.183 16.1651 492.183 16.1651 492.036 16.0182C492.036 16.0182 492.036 15.8712 491.889 15.8712C491.889 15.8712 491.889 15.7243 491.742 15.7243C491.595 15.5773 491.595 15.5773 491.448 15.4304C491.301 15.2834 491.301 15.1365 491.154 15.1365C491.154 14.9895 491.007 14.9895 491.007 14.8425C490.86 14.6956 490.86 14.5486 490.713 14.5486L490.566 14.4017C490.566 14.4017 490.566 14.2547 490.419 14.2547C490.419 14.2547 490.419 14.2547 490.272 14.1078C490.126 13.9608 490.126 13.8138 489.979 13.6669C489.979 13.6669 489.979 13.6669 489.832 13.5199L489.685 13.373L489.538 13.226C489.391 13.0791 489.391 12.9321 489.244 12.7852C489.244 12.7852 489.244 12.6382 489.097 12.6382L488.95 12.4912C488.803 12.3443 488.803 12.1973 488.656 12.0504L488.509 11.9034L488.362 11.7565C488.215 11.6095 488.215 11.4626 488.068 11.4626C488.068 11.3156 487.921 11.3156 487.921 11.1686C487.774 11.0217 487.774 11.0217 487.627 10.8747C487.627 10.7278 487.48 10.7278 487.48 10.5808C487.48 10.4339 487.333 10.4339 487.333 10.2869L487.186 10.1399C487.186 9.99299 487.039 9.993 487.039 9.84604C487.039 9.69909 486.893 9.69909 486.893 9.55213C486.893 9.55213 486.893 9.55213 486.893 9.40517C486.893 9.40517 486.893 9.25822 486.746 9.25822C486.599 9.11126 486.599 9.11126 486.452 8.9643C486.305 8.81735 486.305 8.67039 486.158 8.67039C485.864 8.22952 485.57 7.78866 485.129 7.49475L484.982 7.34779C484.835 7.20084 484.835 7.05388 484.688 7.05388L484.541 6.90693L484.394 6.75997C484.394 6.61301 484.247 6.61301 484.247 6.46605C484.247 6.3191 484.1 6.3191 484.1 6.17215L483.953 6.02519C483.953 6.02519 483.953 6.02519 483.806 5.87823C483.66 5.73128 483.66 5.73128 483.513 5.58432C483.366 5.43737 483.366 5.43736 483.219 5.29041C483.072 5.14345 483.072 5.14345 482.925 4.9965C482.778 4.84954 482.778 4.84954 482.631 4.70259C482.631 4.70259 482.631 4.70258 482.484 4.55563C482.484 4.40867 482.337 4.40867 482.337 4.26172C482.19 4.11476 482.19 3.96781 482.043 3.82085C481.896 3.67389 481.749 3.52694 481.749 3.37998L481.602 3.23303L481.455 3.08607C481.308 2.93911 481.308 2.79216 481.161 2.6452C481.014 2.49825 481.014 2.35129 480.867 2.35129C480.867 2.35129 480.867 2.35129 480.72 2.20434L480.573 2.05738C480.426 1.91042 480.426 1.91043 480.28 1.76347C480.133 1.61652 480.133 1.61651 479.986 1.46956C479.986 1.46956 479.986 1.46956 479.986 1.3226L479.839 1.17565C479.692 1.02869 479.692 1.02869 479.692 0.881733C479.692 0.734777 479.545 0.734776 479.545 0.58782L479.398 0.440866C479.398 0.293911 479.251 0.293913 479.251 0.293913C479.251 0.293913 479.251 0.293909 479.104 0.146954L478.957 0C478.957 0 478.957 0 478.81 0L0.46875 384.436C0.46875 384.436 0.468748 384.436 0.615704 384.583C0.615704 384.583 0.762655 384.73 0.909611 384.877C1.05657 385.024 1.20353 385.171 1.35048 385.318C1.49744 385.465 1.79135 385.759 1.93831 386.053C2.23222 386.347 2.37918 386.641 2.67309 386.935C2.967 387.229 3.26091 387.523 3.55482 387.963C3.84873 388.404 4.14264 388.698 4.58351 389.139C4.87742 389.58 5.31829 390.021 5.75916 390.462C6.05307 390.756 6.20003 391.049 6.49394 391.343C6.64089 391.49 6.78785 391.784 7.08176 391.931C7.37567 392.372 7.66958 392.666 8.11045 393.107C8.2574 393.401 8.55132 393.548 8.69827 393.842L8.84523 393.989C8.99218 394.283 9.2861 394.576 9.43305 394.723C9.87392 395.311 10.3148 395.752 10.7557 396.34C10.7557 396.34 10.7557 396.34 10.9026 396.487C11.0496 396.781 11.1965 396.928 11.4904 397.222C11.4904 397.222 11.4904 397.222 11.4904 397.369C11.6374 397.663 11.7843 397.809 11.9313 397.956C11.9313 397.956 11.9313 398.103 12.0783 398.103C12.2252 398.25 12.3722 398.544 12.5191 398.691C12.5191 398.691 12.5191 398.691 12.6661 398.838C12.813 398.985 12.96 399.279 13.1069 399.426C13.2539 399.573 13.4009 399.867 13.5478 400.014C13.6948 400.161 13.8417 400.308 13.8417 400.455C13.8417 400.455 13.8417 400.602 13.9887 400.602C14.1356 400.749 14.1356 400.896 14.2826 401.043C14.2826 401.043 14.2826 401.043 14.4296 401.189C14.4296 401.336 14.5765 401.336 14.5765 401.483L14.7235 401.63C14.7235 401.777 14.8704 401.777 14.8704 401.924C15.0174 402.218 15.1643 402.365 15.1643 402.365L493.212 17.4877C493.212 17.4877 493.065 17.3408 492.918 17.0469Z" fill="url(#paint12_linear)"/>
<path d="M0.938037 384.798C-0.0906534 383.182 1.87598 385.638 5.69684 390.341C9.66464 394.803 13.9567 400.174 14.9854 401.643C16.014 403.26 12.9661 401.544 9.14524 396.842C4.79468 392.391 1.79443 386.569 0.938037 384.798Z" fill="url(#paint13_linear)"/>
<defs>
<linearGradient id="paint0_linear" x1="141.989" y1="338.184" x2="526.886" y2="338.184" gradientUnits="userSpaceOnUse">
<stop stop-color="#343D8C"/>
<stop offset="0.0368831" stop-color="#364698"/>
<stop offset="0.1366" stop-color="#3B5CB3"/>
<stop offset="0.2383" stop-color="#3F6BC6"/>
<stop offset="0.3421" stop-color="#4174D1"/>
<stop offset="0.4516" stop-color="#4277D5"/>
<stop offset="0.5035" stop-color="#4071C8"/>
<stop offset="0.8439" stop-color="#374978"/>
<stop offset="1" stop-color="#333959"/>
</linearGradient>
<radialGradient id="paint1_radial" cx="0" cy="0" r="1" gradientUnits="userSpaceOnUse" gradientTransform="translate(404.3 321.358) rotate(85.715) scale(15.6624 104.197)">
<stop stop-color="#50607C"/>
<stop offset="0.494792" stop-color="#3B5C97"/>
<stop offset="0.9839" stop-color="#4277D5" stop-opacity="0"/>
</radialGradient>
<radialGradient id="paint2_radial" cx="0" cy="0" r="1" gradientUnits="userSpaceOnUse" gradientTransform="translate(685.52 382.965) rotate(88.0562) scale(18.0438 54.6166)">
<stop stop-color="#3A2438"/>
<stop offset="0.494792" stop-color="#382236"/>
<stop offset="0.9839" stop-color="#62405F"/>
</radialGradient>
<radialGradient id="paint3_radial" cx="0" cy="0" r="1" gradientUnits="userSpaceOnUse" gradientTransform="translate(261.774 320.698) rotate(65.7633) scale(10.5978 78.4159)">
<stop stop-color="#1D3C73"/>
<stop offset="1" stop-color="#3667BD" stop-opacity="0"/>
</radialGradient>
<radialGradient id="paint4_radial" cx="0" cy="0" r="1" gradientUnits="userSpaceOnUse" gradientTransform="translate(617.542 274.628) scale(141.161)">
<stop stop-color="#FD5F8C"/>
<stop offset="0.0603116" stop-color="#FD5F8C"/>
<stop offset="0.382" stop-color="#F04374"/>
<stop offset="0.548" stop-color="#C43D63"/>
<stop offset="0.8011" stop-color="#B5395C"/>
<stop offset="1" stop-color="#6D152E"/>
</radialGradient>
<linearGradient id="paint5_linear" x1="514.007" y1="277.013" x2="514.007" y2="429.406" gradientUnits="userSpaceOnUse">
<stop stop-color="#42BDEB"/>
<stop offset="1" stop-color="#62B2CF"/>
</linearGradient>
<linearGradient id="paint6_linear" x1="373.003" y1="140.049" x2="373.003" y2="325.801" gradientUnits="userSpaceOnUse">
<stop stop-color="#FA5987"/>
<stop offset="0.557292" stop-color="#F14576"/>
<stop offset="1" stop-color="#BB3B60"/>
</linearGradient>
<radialGradient id="paint7_radial" cx="0" cy="0" r="1" gradientUnits="userSpaceOnUse" gradientTransform="translate(451.836 297.788) rotate(5.10054) scale(38.5642)">
<stop stop-color="#F5EDEA"/>
<stop offset="0.1164" stop-color="#EFE6E2"/>
<stop offset="0.2967" stop-color="#E0D2CC"/>
<stop offset="0.4032" stop-color="#D5C4BC"/>
<stop offset="0.4977" stop-color="#D1BDB3"/>
<stop offset="0.6452" stop-color="#C7AA9C"/>
<stop offset="1" stop-color="#D5C4BC"/>
</radialGradient>
<linearGradient id="paint8_linear" x1="441.223" y1="51.1503" x2="651.147" y2="221.466" gradientUnits="userSpaceOnUse">
<stop stop-color="#3B93B4"/>
<stop offset="0.213542" stop-color="#5FCEF8"/>
<stop offset="0.59375" stop-color="#3995B8"/>
<stop offset="1" stop-color="#408DAA"/>
</linearGradient>
<linearGradient id="paint9_linear" x1="244.561" y1="242.625" x2="244.561" y2="327.124" gradientUnits="userSpaceOnUse">
<stop stop-color="#40A5CB"/>
<stop offset="0.317708" stop-color="#51ADCF"/>
<stop offset="0.635417" stop-color="#3491B4"/>
<stop offset="1" stop-color="#3E94B5"/>
</linearGradient>
<linearGradient id="paint10_linear" x1="217.887" y1="250.368" x2="217.887" y2="328.933" gradientUnits="userSpaceOnUse">
<stop stop-color="#42BDEB"/>
<stop offset="1" stop-color="#1F9BCA"/>
</linearGradient>
<radialGradient id="paint11_radial" cx="0" cy="0" r="1" gradientUnits="userSpaceOnUse" gradientTransform="translate(718.838 362.164) rotate(5.10053) scale(78.4583)">
<stop stop-color="#F5EDEA"/>
<stop offset="0.1164" stop-color="#EFE6E2"/>
<stop offset="0.2967" stop-color="#E0D2CC"/>
<stop offset="0.4032" stop-color="#D5C4BC"/>
<stop offset="0.4977" stop-color="#D1BDB3"/>
<stop offset="0.6452" stop-color="#C7AA9C"/>
<stop offset="1" stop-color="#D5C4BC"/>
</radialGradient>
<linearGradient id="paint12_linear" x1="291.209" y1="133.173" x2="312.094" y2="158.972" gradientUnits="userSpaceOnUse">
<stop stop-color="#61405E"/>
<stop offset="1" stop-color="#C4C4C4" stop-opacity="0"/>
</linearGradient>
<linearGradient id="paint13_linear" x1="7.95863" y1="384.322" x2="7.95863" y2="402.158" gradientUnits="userSpaceOnUse">
<stop stop-color="#6B5C6E"/>
<stop offset="1" stop-color="#6B5C6E" stop-opacity="0"/>
</linearGradient>
</defs>
</svg>
